  0
SECTION
  2
HEADER
  9
$ACADVER
  1
AC1009
  9
$TEXTSTYLE
  7
STANDARD
  0
ENDSEC
  0
SECTION
  2
TABLES
  0
TABLE
  2
LTYPE
 70
7
  0
LTYPE
  2
CONTINUOUS
 70
0
  3
Solid line
 72
65
 73
0
 40
0.0
  0
LTYPE
  2
LS_Dot
 70
0
  3
Dot line
 72
65
 73
2
 40
3.000
 49
0.000
 49
-3.000
  0
LTYPE
  2
LS_Dash
 70
0
  3
Dash line
 72
65
 73
2
 40
5.000
 49
2.500
 49
-2.500
  0
LTYPE
  2
LS_LongDash
 70
0
  3
Long Dash line
 72
65
 73
2
 40
7.000
 49
4.000
 49
-3.000
  0
LTYPE
  2
LS_ShortDash
 70
0
  3
Short Dash line
 72
65
 73
2
 40
4.000
 49
2.000
 49
-2.000
  0
LTYPE
  2
LS_DashDot
 70
0
  3
Dash Dot line
 72
65
 73
4
 40
10.000
 49
5.000
 49
-2.500
 49
0.0
 49
-2.500
  0
LTYPE
  2
LS_DashDotDot
 70
0
  3
Dash Dot Dot line
 72
65
 73
6
 40
12.500
 49
5.000
 49
-2.500
 49
0.0
 49
-2.500
 49
0.0
 49
-2.500
  0
ENDTAB
  0
TABLE
  2
LAYER
 70
10
  0
LAYER
  2
0
 70
0
 62
7
  6
CONTINUOUS
  0
LAYER
  2
CADASTRAL_TEXT
 70
0
 62
7
  6
CONTINUOUS
  0
LAYER
  2
BLOCK
 70
0
 62
7
  6
CONTINUOUS
  0
LAYER
  2
BLOCK_AREA
 70
0
 62
7
  6
CONTINUOUS
  0
LAYER
  2
ALLOC_LINE
 70
0
 62
7
  6
CONTINUOUS
  0
LAYER
  2
BASELINE
 70
0
 62
7
  6
CONTINUOUS
  0
LAYER
  2
CADASTRAL_BOUND
 70
0
 62
7
  6
CONTINUOUS
  0
LAYER
  2
CENTERLINE
 70
0
 62
7
  6
CONTINUOUS
  0
LAYER
  2
SIDE_LINE
 70
0
 62
7
  6
CONTINUOUS
  0
LAYER
  2
FRONT_LINE
 70
0
 62
7
  6
CONTINUOUS
  0
ENDTAB
  0
TABLE
  2
STYLE
 70
7
  0
STYLE
  2
STANDARD
 70
0
 40
0.0
 41
1.0
 50
0.0
 71
0
 42
2.5
  3
txt
  4

  0
STYLE
  2
TS_Arial
 70
0
 40
0.0
 41
1.0
 50
0.0
 71
0
 42
2.5
  3
Arial
  4

  0
STYLE
  2
TS_ArialNarrow
 70
0
 40
0.0
 41
1.0
 50
0.0
 71
0
 42
2.5
  3
Arial Narrow
  4

  0
STYLE
  2
TS_CourierNew
 70
0
 40
0.0
 41
1.0
 50
0.0
 71
0
 42
2.5
  3
Courier New
  4

  0
STYLE
  2
TS_TimesNewRoman
 70
0
 40
0.0
 41
1.0
 50
0.0
 71
0
 42
2.5
  3
Times New Roman
  4

  0
STYLE
  2
TS_NewMing
 70
0
 40
0.0
 41
1.0
 50
0.0
 71
0
 42
2.5
  3
·s˛Ó©úĹé
  4

  0
STYLE
  2
TS_Kai
 70
0
 40
0.0
 41
1.0
 50
0.0
 71
0
 42
2.5
  3
ĽĐ·˘Ĺé
  4

  0
ENDTAB
  0
ENDSEC
  0
SECTION
  2
BLOCKS
  0
BLOCK
  8
0
  2
PS_Circle
 70
0
 10
0.0
 20
0.0
 30
0.0
  3
PS_Circle
  1

  0
CIRCLE
  8
0
  6
CONTINUOUS
 10
0.00000
 20
0.00000
 30
0.0
 40
0.500000
  0
POINT
  8
0
 10
0.00000
 20
0.00000
 30
0.0
  0
ENDBLK
  0
BLOCK
  8
0
  2
PS_CEN0
 70
0
 10
0.0
 20
0.0
 30
0.0
  3
PS_CEN0
  1

  0
CIRCLE
  8
0
  6
CONTINUOUS
 10
0.00000
 20
0.00000
 30
0.0
 40
0.500000
  0
POINT
  8
0
 10
0.00000
 20
0.00000
 30
0.0
  0
ENDBLK
  0
BLOCK
  8
0
  2
PS_CEN1
 70
0
 10
0.0
 20
0.0
 30
0.0
  3
PS_CEN1
  1

  0
CIRCLE
  8
0
  6
CONTINUOUS
 10
0.00000
 20
0.00000
 30
0.0
 40
0.500000
  0
POINT
  8
0
 10
0.00000
 20
0.00000
 30
0.0
  0
LINE
  8
0
  6
CONTINUOUS
 10
-0.20000
 20
0.45825
 30
0.0
 11
-0.20000
 21
-0.45825
 31
0.0
  0
LINE
  8
0
  6
CONTINUOUS
 10
0.20000
 20
0.45825
 30
0.0
 11
0.20000
 21
-0.45825
 31
0.0
  0
ENDBLK
  0
BLOCK
  8
0
  2
PS_CEN2
 70
0
 10
0.0
 20
0.0
 30
0.0
  3
PS_CEN2
  1

  0
CIRCLE
  8
0
  6
CONTINUOUS
 10
0.00000
 20
0.00000
 30
0.0
 40
0.500000
  0
LINE
  8
0
  6
CONTINUOUS
 10
-0.50000
 20
0.00000
 30
0.0
 11
0.50000
 21
0.00000
 31
0.0
  0
LINE
  8
0
  6
CONTINUOUS
 10
0.00000
 20
-0.50000
 30
0.0
 11
0.00000
 21
0.50000
 31
0.0
  0
ENDBLK
  0
BLOCK
  8
0
  2
PS_CEN3
 70
0
 10
0.0
 20
0.0
 30
0.0
  3
PS_CEN3
  1

  0
CIRCLE
  8
0
  6
CONTINUOUS
 10
0.00000
 20
0.00000
 30
0.0
 40
0.500000
  0
LINE
  8
0
  6
CONTINUOUS
 10
-0.50000
 20
0.00000
 30
0.0
 11
0.50000
 21
0.00000
 31
0.0
  0
LINE
  8
0
  6
CONTINUOUS
 10
0.00000
 20
0.50000
 30
0.0
 11
0.00000
 21
0.00000
 31
0.0
  0
ENDBLK
  0
BLOCK
  8
0
  2
PS_CEN4
 70
0
 10
0.0
 20
0.0
 30
0.0
  3
PS_CEN4
  1

  0
CIRCLE
  8
0
  6
CONTINUOUS
 10
0.00000
 20
0.00000
 30
0.0
 40
0.500000
  0
POINT
  8
0
 10
0.00000
 20
0.00000
 30
0.0
  0
LINE
  8
0
  6
CONTINUOUS
 10
0.00000
 20
0.50000
 30
0.0
 11
-0.43300
 21
-0.25000
 31
0.0
  0
LINE
  8
0
  6
CONTINUOUS
 10
-0.43300
 20
-0.25000
 30
0.0
 11
0.43300
 21
-0.25000
 31
0.0
  0
LINE
  8
0
  6
CONTINUOUS
 10
0.43300
 20
-0.25000
 30
0.0
 11
0.00000
 21
0.50000
 31
0.0
  0
ENDBLK
  0
BLOCK
  8
0
  2
PS_CEN5
 70
0
 10
0.0
 20
0.0
 30
0.0
  3
PS_CEN5
  1

  0
CIRCLE
  8
0
  6
CONTINUOUS
 10
0.00000
 20
0.00000
 30
0.0
 40
0.500000
  0
LINE
  8
0
  6
CONTINUOUS
 10
-0.50000
 20
0.00000
 30
0.0
 11
0.50000
 21
0.00000
 31
0.0
  0
LINE
  8
0
  6
CONTINUOUS
 10
0.00000
 20
-0.50000
 30
0.0
 11
0.00000
 21
0.00000
 31
0.0
  0
ENDBLK
  0
BLOCK
  8
0
  2
PS_Cross
 70
0
 10
0.0
 20
0.0
 30
0.0
  3
PS_Cross
  1

  0
LINE
  8
0
  6
CONTINUOUS
 10
0.00000
 20
0.25000
 30
0.0
 11
0.00000
 21
-0.25000
 31
0.0
  0
LINE
  8
0
  6
CONTINUOUS
 10
0.25000
 20
0.00000
 30
0.0
 11
-0.25000
 21
0.00000
 31
0.0
  0
ENDBLK
  0
BLOCK
  8
0
  2
PS_Dot
 70
0
 10
0.0
 20
0.0
 30
0.0
  3
PS_Dot
  1

  0
POINT
  8
0
 10
0.00000
 20
0.00000
 30
0.0
  0
ENDBLK
  0
BLOCK
  8
0
  2
PS_TwoCircle
 70
0
 10
0.0
 20
0.0
 30
0.0
  3
PS_TwoCircle
  1

  0
CIRCLE
  8
0
  6
CONTINUOUS
 10
0.00000
 20
0.00000
 30
0.0
 40
0.500000
  0
CIRCLE
  8
0
  6
CONTINUOUS
 10
0.00000
 20
0.00000
 30
0.0
 40
0.350000
  0
POINT
  8
0
 10
0.00000
 20
0.00000
 30
0.0
  0
ENDBLK
  0
BLOCK
  8
0
  2
PS_Triangle
 70
0
 10
0.0
 20
0.0
 30
0.0
  3
PS_Triangle
  1

  0
LINE
  8
0
  6
CONTINUOUS
 10
0.00000
 20
0.57730
 30
0.0
 11
-0.50000
 21
-0.28870
 31
0.0
  0
LINE
  8
0
  6
CONTINUOUS
 10
0.00000
 20
0.57730
 30
0.0
 11
0.50000
 21
-0.28870
 31
0.0
  0
LINE
  8
0
  6
CONTINUOUS
 10
-0.50000
 20
-0.28870
 30
0.0
 11
0.50000
 21
-0.28870
 31
0.0
  0
POINT
  8
0
 10
0.00000
 20
0.00000
 30
0.0
  0
ENDBLK
  0
BLOCK
  8
0
  2
PS_SmallCircle
 70
0
 10
0.0
 20
0.0
 30
0.0
  3
PS_SmallCircle
  1

  0
CIRCLE
  8
0
  6
CONTINUOUS
 10
0.00000
 20
0.00000
 30
0.0
 40
0.375000
  0
POINT
  8
0
 10
0.00000
 20
0.00000
 30
0.0
  0
ENDBLK
  0
BLOCK
  8
0
  2
PS_BenchMark
 70
0
 10
0.0
 20
0.0
 30
0.0
  3
PS_BenchMark
  1

  0
LINE
  8
0
  6
CONTINUOUS
 10
-0.45000
 20
-0.45000
 30
0.0
 11
-0.45000
 21
0.45000
 31
0.0
  0
LINE
  8
0
  6
CONTINUOUS
 10
-0.45000
 20
0.45000
 30
0.0
 11
0.45000
 21
0.45000
 31
0.0
  0
LINE
  8
0
  6
CONTINUOUS
 10
0.45000
 20
0.45000
 30
0.0
 11
0.45000
 21
-0.45000
 31
0.0
  0
LINE
  8
0
  6
CONTINUOUS
 10
0.45000
 20
-0.45000
 30
0.0
 11
-0.45000
 21
-0.45000
 31
0.0
  0
LINE
  8
0
  6
CONTINUOUS
 10
-0.45000
 20
-0.45000
 30
0.0
 11
0.45000
 21
0.45000
 31
0.0
  0
LINE
  8
0
  6
CONTINUOUS
 10
-0.45000
 20
0.45000
 30
0.0
 11
0.45000
 21
-0.45000
 31
0.0
  0
ENDBLK
  0
BLOCK
  8
0
  2
APS_Circle
 70
2
 10
0.0
 20
0.0
 30
0.0
  3
APS_Circle
  1

  0
INSERT
  8
0
  2
PS_Circle
 10
0.0
 20
0.0
 30
0.0
 41
1.0
 42
1.0
 43
1.0
  0
ATTDEF
  8
0
  6
CONTINUOUS
 10
0.7
 20
0.7
 30
0.0
 40
1.0
  1

 41
0.8
  7
STANDARD
  3

  2
POINT_NAME
 70
0
  0
ENDBLK
  0
BLOCK
  8
0
  2
APS_CEN0
 70
2
 10
0.0
 20
0.0
 30
0.0
  3
APS_CEN0
  1

  0
INSERT
  8
0
  2
PS_CEN0
 10
0.0
 20
0.0
 30
0.0
 41
1.0
 42
1.0
 43
1.0
  0
ATTDEF
  8
0
  6
CONTINUOUS
 10
0.7
 20
0.7
 30
0.0
 40
1.0
  1

 41
0.8
  7
STANDARD
  3

  2
POINT_NAME
 70
0
  0
ENDBLK
  0
BLOCK
  8
0
  2
APS_CEN1
 70
2
 10
0.0
 20
0.0
 30
0.0
  3
APS_CEN1
  1

  0
INSERT
  8
0
  2
PS_CEN1
 10
0.0
 20
0.0
 30
0.0
 41
1.0
 42
1.0
 43
1.0
  0
ATTDEF
  8
0
  6
CONTINUOUS
 10
0.7
 20
0.7
 30
0.0
 40
1.0
  1

 41
0.8
  7
STANDARD
  3

  2
POINT_NAME
 70
0
  0
ENDBLK
  0
BLOCK
  8
0
  2
APS_CEN2
 70
2
 10
0.0
 20
0.0
 30
0.0
  3
APS_CEN2
  1

  0
INSERT
  8
0
  2
PS_CEN2
 10
0.0
 20
0.0
 30
0.0
 41
1.0
 42
1.0
 43
1.0
  0
ATTDEF
  8
0
  6
CONTINUOUS
 10
0.7
 20
0.7
 30
0.0
 40
1.0
  1

 41
0.8
  7
STANDARD
  3

  2
POINT_NAME
 70
0
  0
ENDBLK
  0
BLOCK
  8
0
  2
APS_CEN3
 70
2
 10
0.0
 20
0.0
 30
0.0
  3
APS_CEN3
  1

  0
INSERT
  8
0
  2
PS_CEN3
 10
0.0
 20
0.0
 30
0.0
 41
1.0
 42
1.0
 43
1.0
  0
ATTDEF
  8
0
  6
CONTINUOUS
 10
0.7
 20
0.7
 30
0.0
 40
1.0
  1

 41
0.8
  7
STANDARD
  3

  2
POINT_NAME
 70
0
  0
ENDBLK
  0
BLOCK
  8
0
  2
APS_CEN4
 70
2
 10
0.0
 20
0.0
 30
0.0
  3
APS_CEN4
  1

  0
INSERT
  8
0
  2
PS_CEN4
 10
0.0
 20
0.0
 30
0.0
 41
1.0
 42
1.0
 43
1.0
  0
ATTDEF
  8
0
  6
CONTINUOUS
 10
0.7
 20
0.7
 30
0.0
 40
1.0
  1

 41
0.8
  7
STANDARD
  3

  2
POINT_NAME
 70
0
  0
ENDBLK
  0
BLOCK
  8
0
  2
APS_CEN5
 70
2
 10
0.0
 20
0.0
 30
0.0
  3
APS_CEN5
  1

  0
INSERT
  8
0
  2
PS_CEN5
 10
0.0
 20
0.0
 30
0.0
 41
1.0
 42
1.0
 43
1.0
  0
ATTDEF
  8
0
  6
CONTINUOUS
 10
0.7
 20
0.7
 30
0.0
 40
1.0
  1

 41
0.8
  7
STANDARD
  3

  2
POINT_NAME
 70
0
  0
ENDBLK
  0
BLOCK
  8
0
  2
APS_Cross
 70
2
 10
0.0
 20
0.0
 30
0.0
  3
APS_Cross
  1

  0
INSERT
  8
0
  2
PS_Cross
 10
0.0
 20
0.0
 30
0.0
 41
1.0
 42
1.0
 43
1.0
  0
ATTDEF
  8
0
  6
CONTINUOUS
 10
0.7
 20
0.7
 30
0.0
 40
1.0
  1

 41
0.8
  7
STANDARD
  3

  2
POINT_NAME
 70
0
  0
ENDBLK
  0
BLOCK
  8
0
  2
APS_Dot
 70
2
 10
0.0
 20
0.0
 30
0.0
  3
APS_Dot
  1

  0
INSERT
  8
0
  2
PS_Dot
 10
0.0
 20
0.0
 30
0.0
 41
1.0
 42
1.0
 43
1.0
  0
ATTDEF
  8
0
  6
CONTINUOUS
 10
0.7
 20
0.7
 30
0.0
 40
1.0
  1

 41
0.8
  7
STANDARD
  3

  2
POINT_NAME
 70
0
  0
ENDBLK
  0
BLOCK
  8
0
  2
APS_TwoCircle
 70
2
 10
0.0
 20
0.0
 30
0.0
  3
APS_TwoCircle
  1

  0
INSERT
  8
0
  2
PS_TwoCircle
 10
0.0
 20
0.0
 30
0.0
 41
1.0
 42
1.0
 43
1.0
  0
ATTDEF
  8
0
  6
CONTINUOUS
 10
0.7
 20
0.7
 30
0.0
 40
1.0
  1

 41
0.8
  7
STANDARD
  3

  2
POINT_NAME
 70
0
  0
ENDBLK
  0
BLOCK
  8
0
  2
APS_Triangle
 70
2
 10
0.0
 20
0.0
 30
0.0
  3
APS_Triangle
  1

  0
INSERT
  8
0
  2
PS_Triangle
 10
0.0
 20
0.0
 30
0.0
 41
1.0
 42
1.0
 43
1.0
  0
ATTDEF
  8
0
  6
CONTINUOUS
 10
0.7
 20
0.7
 30
0.0
 40
1.0
  1

 41
0.8
  7
STANDARD
  3

  2
POINT_NAME
 70
0
  0
ENDBLK
  0
BLOCK
  8
0
  2
APS_SmallCircle
 70
2
 10
0.0
 20
0.0
 30
0.0
  3
APS_SmallCircle
  1

  0
INSERT
  8
0
  2
PS_SmallCircle
 10
0.0
 20
0.0
 30
0.0
 41
1.0
 42
1.0
 43
1.0
  0
ATTDEF
  8
0
  6
CONTINUOUS
 10
0.7
 20
0.7
 30
0.0
 40
1.0
  1

 41
0.8
  7
STANDARD
  3

  2
POINT_NAME
 70
0
  0
ENDBLK
  0
BLOCK
  8
0
  2
APS_BenchMark
 70
2
 10
0.0
 20
0.0
 30
0.0
  3
APS_BenchMark
  1

  0
INSERT
  8
0
  2
PS_BenchMark
 10
0.0
 20
0.0
 30
0.0
 41
1.0
 42
1.0
 43
1.0
  0
ATTDEF
  8
0
  6
CONTINUOUS
 10
0.7
 20
0.7
 30
0.0
 40
1.0
  1

 41
0.8
  7
STANDARD
  3

  2
POINT_NAME
 70
0
  0
ENDBLK
  0
BLOCK
  8
0
  2
BLK_NorthMark
 70
0
 10
0.0
 20
0.0
 30
0.0
  3
BLK_NorthMark
  1

  0
LINE
  8
0
  6
CONTINUOUS
 10
0.18000
 20
0.18000
 30
0.0
 11
0.00000
 21
0.00000
 31
0.0
  0
LINE
  8
0
  6
CONTINUOUS
 10
0.00000
 20
0.00000
 30
0.0
 11
0.00000
 21
0.40000
 31
0.0
  0
LINE
  8
0
  6
CONTINUOUS
 10
0.00000
 20
0.40000
 30
0.0
 11
0.08000
 21
0.08000
 31
0.0
  0
LINE
  8
0
  6
CONTINUOUS
 10
0.08000
 20
0.08000
 30
0.0
 11
0.40000
 21
0.00000
 31
0.0
  0
LINE
  8
0
  6
CONTINUOUS
 10
0.40000
 20
0.00000
 30
0.0
 11
0.00000
 21
0.00000
 31
0.0
  0
LINE
  8
0
  6
CONTINUOUS
 10
0.12000
 20
0.07000
 30
0.0
 11
0.18000
 21
0.18000
 31
0.0
  0
LINE
  8
0
  6
CONTINUOUS
 10
0.18000
 20
0.18000
 30
0.0
 11
0.07000
 21
0.12000
 31
0.0
  0
LINE
  8
0
  6
CONTINUOUS
 10
0.18000
 20
-0.18000
 30
0.0
 11
0.00000
 21
0.00000
 31
0.0
  0
LINE
  8
0
  6
CONTINUOUS
 10
0.00000
 20
0.00000
 30
0.0
 11
0.00000
 21
-0.40000
 31
0.0
  0
LINE
  8
0
  6
CONTINUOUS
 10
0.00000
 20
-0.40000
 30
0.0
 11
0.08000
 21
-0.08000
 31
0.0
  0
LINE
  8
0
  6
CONTINUOUS
 10
0.08000
 20
-0.08000
 30
0.0
 11
0.40000
 21
-0.00000
 31
0.0
  0
LINE
  8
0
  6
CONTINUOUS
 10
0.40000
 20
-0.00000
 30
0.0
 11
0.00000
 21
0.00000
 31
0.0
  0
LINE
  8
0
  6
CONTINUOUS
 10
0.12000
 20
-0.07000
 30
0.0
 11
0.18000
 21
-0.18000
 31
0.0
  0
LINE
  8
0
  6
CONTINUOUS
 10
0.18000
 20
-0.18000
 30
0.0
 11
0.07000
 21
-0.12000
 31
0.0
  0
LINE
  8
0
  6
CONTINUOUS
 10
-0.18000
 20
-0.18000
 30
0.0
 11
0.00000
 21
0.00000
 31
0.0
  0
LINE
  8
0
  6
CONTINUOUS
 10
0.00000
 20
0.00000
 30
0.0
 11
-0.00000
 21
-0.40000
 31
0.0
  0
LINE
  8
0
  6
CONTINUOUS
 10
-0.00000
 20
-0.40000
 30
0.0
 11
-0.08000
 21
-0.08000
 31
0.0
  0
LINE
  8
0
  6
CONTINUOUS
 10
-0.08000
 20
-0.08000
 30
0.0
 11
-0.40000
 21
-0.00000
 31
0.0
  0
LINE
  8
0
  6
CONTINUOUS
 10
-0.40000
 20
-0.00000
 30
0.0
 11
0.00000
 21
0.00000
 31
0.0
  0
LINE
  8
0
  6
CONTINUOUS
 10
-0.12000
 20
-0.07000
 30
0.0
 11
-0.18000
 21
-0.18000
 31
0.0
  0
LINE
  8
0
  6
CONTINUOUS
 10
-0.18000
 20
-0.18000
 30
0.0
 11
-0.07000
 21
-0.12000
 31
0.0
  0
LINE
  8
0
  6
CONTINUOUS
 10
-0.18000
 20
0.18000
 30
0.0
 11
0.00000
 21
0.00000
 31
0.0
  0
LINE
  8
0
  6
CONTINUOUS
 10
0.00000
 20
0.00000
 30
0.0
 11
-0.00000
 21
0.40000
 31
0.0
  0
LINE
  8
0
  6
CONTINUOUS
 10
-0.00000
 20
0.40000
 30
0.0
 11
-0.08000
 21
0.08000
 31
0.0
  0
LINE
  8
0
  6
CONTINUOUS
 10
-0.08000
 20
0.08000
 30
0.0
 11
-0.40000
 21
0.00000
 31
0.0
  0
LINE
  8
0
  6
CONTINUOUS
 10
-0.40000
 20
0.00000
 30
0.0
 11
0.00000
 21
0.00000
 31
0.0
  0
LINE
  8
0
  6
CONTINUOUS
 10
-0.12000
 20
0.07000
 30
0.0
 11
-0.18000
 21
0.18000
 31
0.0
  0
LINE
  8
0
  6
CONTINUOUS
 10
-0.18000
 20
0.18000
 30
0.0
 11
-0.07000
 21
0.12000
 31
0.0
  0
LINE
  8
0
  6
CONTINUOUS
 10
-0.07200
 20
0.43000
 30
0.0
 11
-0.03600
 21
0.43000
 31
0.0
  0
LINE
  8
0
  6
CONTINUOUS
 10
-0.05400
 20
0.43000
 30
0.0
 11
-0.05400
 21
0.61000
 31
0.0
  0
LINE
  8
0
  6
CONTINUOUS
 10
-0.05400
 20
0.61000
 30
0.0
 11
0.05400
 21
0.45250
 31
0.0
  0
LINE
  8
0
  6
CONTINUOUS
 10
0.07200
 20
0.61000
 30
0.0
 11
0.03600
 21
0.61000
 31
0.0
  0
LINE
  8
0
  6
CONTINUOUS
 10
0.05400
 20
0.61000
 30
0.0
 11
0.05400
 21
0.43000
 31
0.0
  0
LINE
  8
0
  6
CONTINUOUS
 10
0.05400
 20
0.43000
 30
0.0
 11
-0.05400
 21
0.58750
 31
0.0
  0
ENDBLK
  0
BLOCK
  8
0
  2
PS_Cross
 70
0
 10
0.0
 20
0.0
 30
0.0
  3
PS_Cross
  1

  0
LINE
  8
0
  6
CONTINUOUS
 10
0.00000
 20
0.25000
 30
0.0
 11
0.00000
 21
-0.25000
 31
0.0
  0
LINE
  8
0
  6
CONTINUOUS
 10
0.25000
 20
0.00000
 30
0.0
 11
-0.25000
 21
0.00000
 31
0.0
  0
ENDBLK
  0
ENDSEC
  0
SECTION
  2
ENTITIES
  0
TEXT
  8
CADASTRAL_TEXT
 10
310480.42200
 20
2651758.08900
 30
0.0
 40
1.50000
  1
719
 41
0.70
  0
TEXT
  8
CADASTRAL_TEXT
 10
310412.99800
 20
2651814.70500
 30
0.0
 40
1.50000
  1
718
 41
0.70
  0
TEXT
  8
CADASTRAL_TEXT
 10
310448.43800
 20
2651772.38400
 30
0.0
 40
1.50000
  1
717
 41
0.70
  0
TEXT
  8
CADASTRAL_TEXT
 10
310467.92900
 20
2651756.22900
 30
0.0
 40
1.50000
  1
715
 41
0.70
  0
TEXT
  8
CADASTRAL_TEXT
 10
310476.58400
 20
2651747.07000
 30
0.0
 40
1.50000
  1
713
 41
0.70
  0
TEXT
  8
CADASTRAL_TEXT
 10
310442.46700
 20
2651822.72200
 30
0.0
 40
1.50000
  1
628-53
 41
0.70
  0
TEXT
  8
CADASTRAL_TEXT
 10
310404.50200
 20
2651962.69900
 30
0.0
 40
1.50000
  1
628-52
 41
0.70
  0
TEXT
  8
CADASTRAL_TEXT
 10
310417.43700
 20
2651953.54900
 30
0.0
 40
1.50000
  1
628-51
 41
0.70
  0
TEXT
  8
CADASTRAL_TEXT
 10
310429.39100
 20
2651944.28100
 30
0.0
 40
1.50000
  1
628-50
 41
0.70
  0
TEXT
  8
CADASTRAL_TEXT
 10
310441.10200
 20
2651935.18700
 30
0.0
 40
1.50000
  1
628-49
 41
0.70
  0
TEXT
  8
CADASTRAL_TEXT
 10
310452.64400
 20
2651926.27500
 30
0.0
 40
1.50000
  1
628-48
 41
0.70
  0
TEXT
  8
CADASTRAL_TEXT
 10
310463.99600
 20
2651917.48600
 30
0.0
 40
1.50000
  1
628-47
 41
0.70
  0
TEXT
  8
CADASTRAL_TEXT
 10
310475.48100
 20
2651908.74300
 30
0.0
 40
1.50000
  1
628-46
 41
0.70
  0
TEXT
  8
CADASTRAL_TEXT
 10
310428.01100
 20
2651857.96800
 30
0.0
 40
1.50000
  1
628-45
 41
0.70
  0
TEXT
  8
CADASTRAL_TEXT
 10
310357.47124
 20
2651918.37700
 30
0.0
 40
1.00000
  1
628-44
 41
0.50
  0
TEXT
  8
CADASTRAL_TEXT
 10
310362.95600
 20
2651922.48600
 30
0.0
 40
1.50000
  1
628-43
 41
0.70
  0
TEXT
  8
CADASTRAL_TEXT
 10
310405.76600
 20
2651866.29100
 30
0.0
 40
1.50000
  1
628-42
 41
0.70
  0
TEXT
  8
CADASTRAL_TEXT
 10
310361.11300
 20
2651908.08700
 30
0.0
 40
1.50000
  1
628-41
 41
0.70
  0
TEXT
  8
CADASTRAL_TEXT
 10
310382.38300
 20
2651909.25100
 30
0.0
 40
1.50000
  1
628-40
 41
0.70
  0
TEXT
  8
CADASTRAL_TEXT
 10
310386.15300
 20
2651921.04000
 30
0.0
 40
1.50000
  1
628-39
 41
0.70
  0
TEXT
  8
CADASTRAL_TEXT
 10
310483.56104
 20
2651796.62264
 30
0.0
 40
3.40000
  1
628-38
 50
325.00000
 41
0.80
  0
TEXT
  8
CADASTRAL_TEXT
 10
310449.75700
 20
2651999.78900
 30
0.0
 40
1.50000
  1
628-37
 41
0.70
  0
TEXT
  8
CADASTRAL_TEXT
 10
310463.79000
 20
2651976.27300
 30
0.0
 40
1.50000
  1
628-36
 41
0.70
  0
TEXT
  8
CADASTRAL_TEXT
 10
310455.38600
 20
2651965.12900
 30
0.0
 40
1.50000
  1
628-35
 41
0.70
  0
TEXT
  8
CADASTRAL_TEXT
 10
310445.62300
 20
2651952.77300
 30
0.0
 40
1.50000
  1
628-34
 41
0.70
  0
TEXT
  8
CADASTRAL_TEXT
 10
310429.70200
 20
2651923.17800
 30
0.0
 40
1.50000
  1
628-32
 41
0.70
  0
TEXT
  8
CADASTRAL_TEXT
 10
310449.64971
 20
2651883.77075
 30
0.0
 40
3.40000
  1
628-31
 50
330.00000
 41
0.70
  0
TEXT
  8
CADASTRAL_TEXT
 10
310432.11276
 20
2651879.22560
 30
0.0
 40
4.20000
  1
628-30
 50
335.00000
 41
0.70
  0
TEXT
  8
CADASTRAL_TEXT
 10
310415.87000
 20
2651876.04500
 30
0.0
 40
1.50000
  1
628-29
 41
0.70
  0
TEXT
  8
CADASTRAL_TEXT
 10
310405.56700
 20
2651881.54400
 30
0.0
 40
1.50000
  1
628-28
 41
0.70
  0
TEXT
  8
CADASTRAL_TEXT
 10
310396.41100
 20
2651886.87700
 30
0.0
 40
1.50000
  1
628-27
 41
0.70
  0
TEXT
  8
CADASTRAL_TEXT
 10
310391.71846
 20
2651857.25827
 30
0.0
 40
1.00000
  1
628-26
 41
0.50
  0
TEXT
  8
CADASTRAL_TEXT
 10
310390.70300
 20
2651847.38900
 30
0.0
 40
1.50000
  1
628-25
 41
0.70
  0
TEXT
  8
CADASTRAL_TEXT
 10
310402.94600
 20
2651833.09900
 30
0.0
 40
1.50000
  1
628-24
 41
0.70
  0
TEXT
  8
CADASTRAL_TEXT
 10
310501.06200
 20
2651887.12000
 30
0.0
 40
1.50000
  1
628-23
 41
0.70
  0
TEXT
  8
CADASTRAL_TEXT
 10
310492.20900
 20
2651872.70000
 30
0.0
 40
1.50000
  1
628-22
 41
0.70
  0
TEXT
  8
CADASTRAL_TEXT
 10
310484.91900
 20
2651856.18400
 30
0.0
 40
1.50000
  1
628-21
 41
0.70
  0
TEXT
  8
CADASTRAL_TEXT
 10
310487.58200
 20
2651836.83800
 30
0.0
 40
1.50000
  1
628-20
 41
0.70
  0
TEXT
  8
CADASTRAL_TEXT
 10
310470.71200
 20
2651820.05700
 30
0.0
 40
1.50000
  1
628-18
 41
0.70
  0
TEXT
  8
CADASTRAL_TEXT
 10
310438.13500
 20
2651809.59300
 30
0.0
 40
1.50000
  1
628-17
 41
0.70
  0
TEXT
  8
CADASTRAL_TEXT
 10
310476.76120
 20
2651787.31650
 30
0.0
 40
2.60000
  1
628-16
 50
340.00000
 41
0.90
  0
TEXT
  8
CADASTRAL_TEXT
 10
310492.10800
 20
2651768.63400
 30
0.0
 40
1.50000
  1
628-15
 41
0.70
  0
TEXT
  8
CADASTRAL_TEXT
 10
310504.31680
 20
2651768.32276
 30
0.0
 40
1.00000
  1
628-14
 41
0.70
  0
TEXT
  8
CADASTRAL_TEXT
 10
310497.43244
 20
2651777.37668
 30
0.0
 40
1.50000
  1
628-13
 41
0.70
  0
TEXT
  8
CADASTRAL_TEXT
 10
310505.28400
 20
2651779.38800
 30
0.0
 40
1.50000
  1
628-12
 41
0.70
  0
TEXT
  8
CADASTRAL_TEXT
 10
310519.96600
 20
2651794.49800
 30
0.0
 40
1.50000
  1
628-7
 41
0.70
  0
TEXT
  8
CADASTRAL_TEXT
 10
310578.25470
 20
2651821.51065
 30
0.0
 40
1.50000
  1
628-6
 41
0.70
  0
TEXT
  8
CADASTRAL_TEXT
 10
310565.59600
 20
2651832.76400
 30
0.0
 40
1.50000
  1
628-5
 41
0.70
  0
TEXT
  8
CADASTRAL_TEXT
 10
310532.07400
 20
2651840.96300
 30
0.0
 40
1.50000
  1
628-4
 41
0.70
  0
TEXT
  8
CADASTRAL_TEXT
 10
310576.65535
 20
2651853.05210
 30
0.0
 40
1.00000
  1
628-3
 41
0.70
  0
TEXT
  8
CADASTRAL_TEXT
 10
310585.09055
 20
2651862.32511
 30
0.0
 40
1.00000
  1
628-2
 41
0.70
  0
TEXT
  8
CADASTRAL_TEXT
 10
310567.20900
 20
2651864.22200
 30
0.0
 40
1.50000
  1
628-1
 41
0.70
  0
TEXT
  8
CADASTRAL_TEXT
 10
310514.35800
 20
2651911.55900
 30
0.0
 40
1.50000
  1
628
 41
0.70
  0
TEXT
  8
BLOCK
 10
310412.61661
 20
2651819.64992
 30
0.0
 40
7.40000
  1
G1-¤˝¶é
 50
320.00000
  7
TS_NewMing
 41
0.91
  0
TEXT
  8
BLOCK
 10
310447.87100
 20
2651966.80538
 30
0.0
 40
5.92000
  1
R1-¦í¦v°Ď
  7
TS_NewMing
 41
0.91
  0
TEXT
  8
BLOCK
 10
310388.74780
 20
2651934.51098
 30
0.0
 40
7.40000
  1
R2-¦í¦v°Ď
  7
TS_NewMing
 41
0.91
  0
TEXT
  8
BLOCK
 10
310423.80956
 20
2651904.17754
 30
0.0
 40
7.40000
  1
R3-¦í¦v°Ď
  7
TS_NewMing
 41
0.91
  0
TEXT
  8
BLOCK
 10
310520.04764
 20
2651892.81626
 30
0.0
 40
5.92000
  1
R4-¦í¦v°Ď
  7
TS_NewMing
 41
0.91
  0
TEXT
  8
BLOCK
 10
310458.11413
 20
2651864.90083
 30
0.0
 40
7.40000
  1
R5-¦í¦v°Ď
  7
TS_NewMing
 41
0.91
  0
TEXT
  8
BLOCK
 10
310494.24284
 20
2651835.62586
 30
0.0
 40
7.40000
  1
R6-¦í¦v°Ď
  7
TS_NewMing
 41
0.91
  0
TEXT
  8
BLOCK_AREA
 10
310449.56278
 20
2651954.64739
 30
0.0
 40
8.00000
  1
2893.55˘T
  7
TS_Kai
 41
0.77
  0
TEXT
  8
BLOCK_AREA
 10
310419.08854
 20
2651893.04355
 30
0.0
 40
8.00000
  1
4206.80˘T
  7
TS_Kai
 41
0.77
  0
TEXT
  8
BLOCK_AREA
 10
310380.09462
 20
2651916.63651
 30
0.0
 40
8.00000
  1
4368.60˘T
  7
TS_Kai
 41
0.77
  0
TEXT
  8
BLOCK_AREA
 10
310521.22550
 20
2651884.17425
 30
0.0
 40
8.00000
  1
3207.87˘T
  7
TS_Kai
 41
0.77
  0
TEXT
  8
BLOCK_AREA
 10
310490.52278
 20
2651822.14179
 30
0.0
 40
8.00000
  1
3976.30˘T
  7
TS_Kai
 41
0.77
  0
TEXT
  8
BLOCK_AREA
 10
310452.97098
 20
2651851.46521
 30
0.0
 40
8.00000
  1
4150.22˘T
  7
TS_Kai
 41
0.77
  0
TEXT
  8
BLOCK
 10
310388.35983
 20
2651877.40650
 30
0.0
 40
4.58800
  1
RD4-ąD¸ô
 50
320.00000
  7
TS_NewMing
 41
0.91
  0
TEXT
  8
BLOCK_AREA
 10
310442.39478
 20
2651778.36579
 30
0.0
 40
8.00000
  1
7464.68˘T
  7
TS_Kai
 41
0.77
  0
TEXT
  8
BLOCK_AREA
 10
310431.82709
 20
2651835.43946
 30
0.0
 40
8.00000
  1
4681.42˘T
 50
320.00000
  7
TS_Kai
 41
0.77
  0
TEXT
  8
BLOCK
 10
310386.16479
 20
2651944.34236
 30
0.0
 40
3.84800
  1
RD1-ąD¸ô
 50
50.00000
  7
TS_NewMing
 41
0.91
  0
TEXT
  8
BLOCK
 10
310446.83725
 20
2651866.89201
 30
0.0
 40
4.58800
  1
RD2-ąD¸ô
 50
50.00000
  7
TS_NewMing
 41
0.91
  0
TEXT
  8
BLOCK
 10
310519.85869
 20
2651800.52657
 30
0.0
 40
4.58800
  1
RD3-ąD¸ô
 50
50.00000
  7
TS_NewMing
 41
0.91
  0
LINE
  8
BASELINE
  6
CONTINUOUS
 10
310495.16840
 20
2651916.16941
 30
0.0
 11
310560.95013
 21
2651846.71976
 31
0.0
  0
LINE
  8
BASELINE
  6
CONTINUOUS
 10
310466.20147
 20
2651817.15080
 30
0.0
 11
310528.14421
 21
2651881.35490
 31
0.0
  0
LINE
  8
BASELINE
  6
CONTINUOUS
 10
310429.10233
 20
2651985.91925
 30
0.0
 11
310489.64343
 21
2651922.00245
 31
0.0
  0
LINE
  8
BASELINE
  6
CONTINUOUS
 10
310394.80130
 20
2651881.96454
 30
0.0
 11
310459.44516
 21
2651953.88454
 31
0.0
  0
LINE
  8
CADASTRAL_BOUND
  6
CONTINUOUS
 62
1
 10
310493.56300
 20
2651965.96100
 30
0.0
 11
310436.91900
 21
2652006.40100
 31
0.0
  0
LINE
  8
CADASTRAL_BOUND
  6
CONTINUOUS
 62
1
 10
310436.91900
 20
2652006.40100
 30
0.0
 11
310445.95700
 21
2652016.25800
 31
0.0
  0
LINE
  8
CADASTRAL_BOUND
  6
CONTINUOUS
 62
1
 10
310428.83100
 20
2651997.58600
 30
0.0
 11
310436.91900
 21
2652006.40100
 31
0.0
  0
LINE
  8
CADASTRAL_BOUND
  6
CONTINUOUS
 62
1
 10
310418.58900
 20
2651986.40800
 30
0.0
 11
310428.50800
 21
2651997.22600
 31
0.0
  0
LINE
  8
CADASTRAL_BOUND
  6
CONTINUOUS
 62
1
 10
310428.50800
 20
2651997.22600
 30
0.0
 11
310440.04400
 21
2651989.04700
 31
0.0
  0
LINE
  8
CADASTRAL_BOUND
  6
CONTINUOUS
 62
1
 10
310428.50800
 20
2651997.22600
 30
0.0
 11
310428.83100
 21
2651997.58600
 31
0.0
  0
LINE
  8
CADASTRAL_BOUND
  6
CONTINUOUS
 62
1
 10
310493.56300
 20
2651965.96100
 30
0.0
 11
310501.37300
 21
2651957.71300
 31
0.0
  0
LINE
  8
CADASTRAL_BOUND
  6
CONTINUOUS
 62
1
 10
310445.95700
 20
2652016.25800
 30
0.0
 11
310493.56300
 21
2651965.96100
 31
0.0
  0
LINE
  8
CADASTRAL_BOUND
  6
CONTINUOUS
 62
1
 10
310501.37300
 20
2651957.71300
 30
0.0
 11
310568.98600
 21
2651886.22400
 31
0.0
  0
LINE
  8
CADASTRAL_BOUND
  6
CONTINUOUS
 62
1
 10
310495.40200
 20
2651947.64300
 30
0.0
 11
310501.37300
 21
2651957.71300
 31
0.0
  0
LINE
  8
CADASTRAL_BOUND
  6
CONTINUOUS
 62
1
 10
310423.64800
 20
2651818.61400
 30
0.0
 11
310432.56200
 21
2651809.45500
 31
0.0
  0
LINE
  8
CADASTRAL_BOUND
  6
CONTINUOUS
 62
1
 10
310432.56200
 20
2651809.45500
 30
0.0
 11
310435.66800
 21
2651806.41200
 31
0.0
  0
LINE
  8
CADASTRAL_BOUND
  6
CONTINUOUS
 62
1
 10
310421.23200
 20
2651820.19500
 30
0.0
 11
310423.64800
 21
2651818.61400
 31
0.0
  0
LINE
  8
CADASTRAL_BOUND
  6
CONTINUOUS
 62
1
 10
310582.63600
 20
2651818.50300
 30
0.0
 11
310576.43900
 21
2651814.11800
 31
0.0
  0
LINE
  8
CADASTRAL_BOUND
  6
CONTINUOUS
 62
1
 10
310576.43900
 20
2651814.11800
 30
0.0
 11
310559.43500
 21
2651802.13800
 31
0.0
  0
LINE
  8
CADASTRAL_BOUND
  6
CONTINUOUS
 62
1
 10
310533.38300
 20
2651783.78500
 30
0.0
 11
310521.26800
 21
2651775.25000
 31
0.0
  0
LINE
  8
CADASTRAL_BOUND
  6
CONTINUOUS
 62
1
 10
310546.96700
 20
2651793.35500
 30
0.0
 11
310533.38300
 21
2651783.78500
 31
0.0
  0
LINE
  8
CADASTRAL_BOUND
  6
CONTINUOUS
 62
1
 10
310446.81200
 20
2651772.83300
 30
0.0
 11
310406.34000
 21
2651809.59600
 31
0.0
  0
LINE
  8
CADASTRAL_BOUND
  6
CONTINUOUS
 62
1
 10
310446.81200
 20
2651772.83300
 30
0.0
 11
310460.22600
 21
2651760.65000
 31
0.0
  0
LINE
  8
CADASTRAL_BOUND
  6
CONTINUOUS
 62
1
 10
310406.34000
 20
2651809.59600
 30
0.0
 11
310386.92400
 21
2651827.23000
 31
0.0
  0
LINE
  8
CADASTRAL_BOUND
  6
CONTINUOUS
 62
1
 10
310462.44900
 20
2651766.66500
 30
0.0
 11
310421.68700
 21
2651796.78900
 31
0.0
  0
LINE
  8
CADASTRAL_BOUND
  6
CONTINUOUS
 62
1
 10
310472.63400
 20
2651759.07500
 30
0.0
 11
310462.44900
 21
2651766.66500
 31
0.0
  0
LINE
  8
CADASTRAL_BOUND
  6
CONTINUOUS
 62
1
 10
310460.72000
 20
2651764.66900
 30
0.0
 11
310462.44900
 21
2651766.66500
 31
0.0
  0
LINE
  8
CADASTRAL_BOUND
  6
CONTINUOUS
 62
1
 10
310417.23800
 20
2651801.14600
 30
0.0
 11
310421.68700
 21
2651796.78900
 31
0.0
  0
LINE
  8
CADASTRAL_BOUND
  6
CONTINUOUS
 62
1
 10
310458.09600
 20
2651790.11600
 30
0.0
 11
310417.23800
 21
2651801.14600
 31
0.0
  0
LINE
  8
CADASTRAL_BOUND
  6
CONTINUOUS
 62
1
 10
310462.01500
 20
2651787.55200
 30
0.0
 11
310458.09600
 21
2651790.11600
 31
0.0
  0
LINE
  8
CADASTRAL_BOUND
  6
CONTINUOUS
 62
1
 10
310454.80700
 20
2651792.33600
 30
0.0
 11
310458.09600
 21
2651790.11600
 31
0.0
  0
LINE
  8
CADASTRAL_BOUND
  6
CONTINUOUS
 62
1
 10
310390.76900
 20
2651826.97200
 30
0.0
 11
310417.23800
 21
2651801.14600
 31
0.0
  0
LINE
  8
CADASTRAL_BOUND
  6
CONTINUOUS
 62
1
 10
310385.73400
 20
2651950.57400
 30
0.0
 11
310386.67700
 21
2651951.60200
 31
0.0
  0
LINE
  8
CADASTRAL_BOUND
  6
CONTINUOUS
 62
1
 10
310375.33500
 20
2651939.23100
 30
0.0
 11
310385.73400
 21
2651950.57400
 31
0.0
  0
LINE
  8
CADASTRAL_BOUND
  6
CONTINUOUS
 62
1
 10
310438.74500
 20
2651908.96600
 30
0.0
 11
310385.73400
 21
2651950.57400
 31
0.0
  0
LINE
  8
CADASTRAL_BOUND
  6
CONTINUOUS
 62
1
 10
310386.67700
 20
2651951.60200
 30
0.0
 11
310389.89300
 21
2651955.11000
 31
0.0
  0
LINE
  8
CADASTRAL_BOUND
  6
CONTINUOUS
 62
1
 10
310389.89300
 20
2651955.11000
 30
0.0
 11
310391.41200
 21
2651956.76700
 31
0.0
  0
LINE
  8
CADASTRAL_BOUND
  6
CONTINUOUS
 62
1
 10
310393.08500
 20
2651958.59100
 30
0.0
 11
310396.28500
 21
2651962.08100
 31
0.0
  0
LINE
  8
CADASTRAL_BOUND
  6
CONTINUOUS
 62
1
 10
310391.41200
 20
2651956.76700
 30
0.0
 11
310393.08500
 21
2651958.59100
 31
0.0
  0
LINE
  8
CADASTRAL_BOUND
  6
CONTINUOUS
 62
1
 10
310396.28500
 20
2651962.08100
 30
0.0
 11
310396.91300
 21
2651962.76600
 31
0.0
  0
LINE
  8
CADASTRAL_BOUND
  6
CONTINUOUS
 62
1
 10
310390.76900
 20
2651826.97200
 30
0.0
 11
310386.92400
 21
2651827.23000
 31
0.0
  0
LINE
  8
CADASTRAL_BOUND
  6
CONTINUOUS
 62
1
 10
310586.93300
 20
2651867.35100
 30
0.0
 11
310590.49500
 21
2651863.58400
 31
0.0
  0
LINE
  8
CADASTRAL_BOUND
  6
CONTINUOUS
 62
1
 10
310568.98600
 20
2651886.22400
 30
0.0
 11
310586.93300
 21
2651867.35100
 31
0.0
  0
LINE
  8
CADASTRAL_BOUND
  6
CONTINUOUS
 62
1
 10
310586.93300
 20
2651867.35100
 30
0.0
 11
310578.65900
 21
2651855.61200
 31
0.0
  0
LINE
  8
CADASTRAL_BOUND
  6
CONTINUOUS
 62
1
 10
310590.49500
 20
2651863.58400
 30
0.0
 11
310580.57300
 21
2651854.27700
 31
0.0
  0
LINE
  8
CADASTRAL_BOUND
  6
CONTINUOUS
 62
1
 10
310572.14700
 20
2651846.37200
 30
0.0
 11
310569.31800
 21
2651843.71900
 31
0.0
  0
LINE
  8
CADASTRAL_BOUND
  6
CONTINUOUS
 62
1
 10
310580.57300
 20
2651854.27700
 30
0.0
 11
310572.14700
 21
2651846.37200
 31
0.0
  0
LINE
  8
CADASTRAL_BOUND
  6
CONTINUOUS
 62
1
 10
310578.65900
 20
2651855.61200
 30
0.0
 11
310572.14700
 21
2651846.37200
 31
0.0
  0
LINE
  8
CADASTRAL_BOUND
  6
CONTINUOUS
 62
1
 10
310569.31800
 20
2651843.71900
 30
0.0
 11
310567.92700
 21
2651842.41400
 31
0.0
  0
LINE
  8
CADASTRAL_BOUND
  6
CONTINUOUS
 62
1
 10
310569.31800
 20
2651843.71900
 30
0.0
 11
310562.08700
 21
2651845.00300
 31
0.0
  0
LINE
  8
CADASTRAL_BOUND
  6
CONTINUOUS
 62
1
 10
310567.92700
 20
2651842.41400
 30
0.0
 11
310569.89500
 21
2651839.99700
 31
0.0
  0
LINE
  8
CADASTRAL_BOUND
  6
CONTINUOUS
 62
1
 10
310580.39800
 20
2651827.13300
 30
0.0
 11
310583.75700
 21
2651822.97100
 31
0.0
  0
LINE
  8
CADASTRAL_BOUND
  6
CONTINUOUS
 62
1
 10
310576.98400
 20
2651822.02500
 30
0.0
 11
310580.39800
 21
2651827.13300
 31
0.0
  0
LINE
  8
CADASTRAL_BOUND
  6
CONTINUOUS
 62
1
 10
310580.30500
 20
2651827.24600
 30
0.0
 11
310580.39800
 21
2651827.13300
 31
0.0
  0
LINE
  8
CADASTRAL_BOUND
  6
CONTINUOUS
 62
1
 10
310583.75700
 20
2651822.97100
 30
0.0
 11
310585.67000
 21
2651820.62100
 31
0.0
  0
LINE
  8
CADASTRAL_BOUND
  6
CONTINUOUS
 62
1
 10
310585.67000
 20
2651820.62100
 30
0.0
 11
310582.63600
 21
2651818.50300
 31
0.0
  0
LINE
  8
CADASTRAL_BOUND
  6
CONTINUOUS
 62
1
 10
310580.57300
 20
2651854.27700
 30
0.0
 11
310578.65900
 21
2651855.61200
 31
0.0
  0
LINE
  8
CADASTRAL_BOUND
  6
CONTINUOUS
 62
1
 10
310568.98600
 20
2651886.22400
 30
0.0
 11
310557.34200
 21
2651866.90500
 31
0.0
  0
LINE
  8
CADASTRAL_BOUND
  6
CONTINUOUS
 62
1
 10
310569.89500
 20
2651839.99700
 30
0.0
 11
310577.80500
 21
2651830.28100
 31
0.0
  0
LINE
  8
CADASTRAL_BOUND
  6
CONTINUOUS
 62
1
 10
310577.80500
 20
2651830.28100
 30
0.0
 11
310580.30500
 21
2651827.24600
 31
0.0
  0
LINE
  8
CADASTRAL_BOUND
  6
CONTINUOUS
 62
1
 10
310474.93300
 20
2651747.29200
 30
0.0
 11
310460.22600
 21
2651760.65000
 31
0.0
  0
LINE
  8
CADASTRAL_BOUND
  6
CONTINUOUS
 62
1
 10
310460.72000
 20
2651764.66900
 30
0.0
 11
310460.22600
 21
2651760.65000
 31
0.0
  0
LINE
  8
CADASTRAL_BOUND
  6
CONTINUOUS
 62
1
 10
310477.83800
 20
2651744.65300
 30
0.0
 11
310474.93300
 21
2651747.29200
 31
0.0
  0
LINE
  8
CADASTRAL_BOUND
  6
CONTINUOUS
 62
1
 10
310474.93300
 20
2651747.29200
 30
0.0
 11
310474.39000
 21
2651750.28400
 31
0.0
  0
LINE
  8
CADASTRAL_BOUND
  6
CONTINUOUS
 62
1
 10
310484.11100
 20
2651749.07300
 30
0.0
 11
310477.83800
 21
2651744.65300
 31
0.0
  0
LINE
  8
CADASTRAL_BOUND
  6
CONTINUOUS
 62
1
 10
310484.11100
 20
2651749.07300
 30
0.0
 11
310474.39000
 21
2651750.28400
 31
0.0
  0
LINE
  8
CADASTRAL_BOUND
  6
CONTINUOUS
 62
1
 10
310498.74800
 20
2651759.38400
 30
0.0
 11
310484.11100
 21
2651749.07300
 31
0.0
  0
LINE
  8
CADASTRAL_BOUND
  6
CONTINUOUS
 62
1
 10
310474.39000
 20
2651750.28400
 30
0.0
 11
310472.63400
 21
2651759.07500
 31
0.0
  0
LINE
  8
CADASTRAL_BOUND
  6
CONTINUOUS
 62
1
 10
310498.74800
 20
2651759.38400
 30
0.0
 11
310491.25300
 21
2651765.74200
 31
0.0
  0
LINE
  8
CADASTRAL_BOUND
  6
CONTINUOUS
 62
1
 10
310501.77100
 20
2651761.51400
 30
0.0
 11
310498.74800
 21
2651759.38400
 31
0.0
  0
LINE
  8
CADASTRAL_BOUND
  6
CONTINUOUS
 62
1
 10
310510.33800
 20
2651767.53000
 30
0.0
 11
310507.58000
 21
2651765.60700
 31
0.0
  0
LINE
  8
CADASTRAL_BOUND
  6
CONTINUOUS
 62
1
 10
310507.58000
 20
2651765.60700
 30
0.0
 11
310501.77100
 21
2651761.51400
 31
0.0
  0
LINE
  8
CADASTRAL_BOUND
  6
CONTINUOUS
 62
1
 10
310491.73000
 20
2651779.38400
 30
0.0
 11
310507.58000
 21
2651765.60700
 31
0.0
  0
LINE
  8
CADASTRAL_BOUND
  6
CONTINUOUS
 62
1
 10
310513.22300
 20
2651769.56900
 30
0.0
 11
310510.33800
 21
2651767.53000
 31
0.0
  0
LINE
  8
CADASTRAL_BOUND
  6
CONTINUOUS
 62
1
 10
310492.70600
 20
2651780.70400
 30
0.0
 11
310510.33800
 21
2651767.53000
 31
0.0
  0
LINE
  8
CADASTRAL_BOUND
  6
CONTINUOUS
 62
1
 10
310521.26800
 20
2651775.25000
 30
0.0
 11
310513.22300
 21
2651769.56900
 31
0.0
  0
LINE
  8
CADASTRAL_BOUND
  6
CONTINUOUS
 62
1
 10
310513.22300
 20
2651769.56900
 30
0.0
 11
310497.12900
 21
2651784.74700
 31
0.0
  0
LINE
  8
CADASTRAL_BOUND
  6
CONTINUOUS
 62
1
 10
310521.26800
 20
2651775.25000
 30
0.0
 11
310501.45200
 21
2651790.70900
 31
0.0
  0
LINE
  8
CADASTRAL_BOUND
  6
CONTINUOUS
 62
1
 10
310454.80700
 20
2651792.33600
 30
0.0
 11
310441.18900
 21
2651801.00000
 31
0.0
  0
LINE
  8
CADASTRAL_BOUND
  6
CONTINUOUS
 62
1
 10
310441.18900
 20
2651801.00000
 30
0.0
 11
310435.66800
 21
2651806.41200
 31
0.0
  0
LINE
  8
CADASTRAL_BOUND
  6
CONTINUOUS
 62
1
 10
310485.52100
 20
2651771.20700
 30
0.0
 11
310491.25300
 21
2651765.74200
 31
0.0
  0
LINE
  8
CADASTRAL_BOUND
  6
CONTINUOUS
 62
1
 10
310462.01500
 20
2651787.55200
 30
0.0
 11
310485.52100
 21
2651771.20700
 31
0.0
  0
LINE
  8
CADASTRAL_BOUND
  6
CONTINUOUS
 62
1
 10
310491.73000
 20
2651779.38400
 30
0.0
 11
310485.52100
 21
2651771.20700
 31
0.0
  0
LINE
  8
CADASTRAL_BOUND
  6
CONTINUOUS
 62
1
 10
310454.80700
 20
2651792.33600
 30
0.0
 11
310463.45100
 21
2651805.52400
 31
0.0
  0
LINE
  8
CADASTRAL_BOUND
  6
CONTINUOUS
 62
1
 10
310399.30000
 20
2651965.37000
 30
0.0
 11
310399.45900
 21
2651965.54300
 31
0.0
  0
LINE
  8
CADASTRAL_BOUND
  6
CONTINUOUS
 62
1
 10
310399.45900
 20
2651965.54300
 30
0.0
 11
310402.60400
 21
2651968.97300
 31
0.0
  0
LINE
  8
CADASTRAL_BOUND
  6
CONTINUOUS
 62
1
 10
310396.91300
 20
2651962.76600
 30
0.0
 11
310399.30000
 21
2651965.37000
 31
0.0
  0
LINE
  8
CADASTRAL_BOUND
  6
CONTINUOUS
 62
1
 10
310402.60400
 20
2651968.97300
 30
0.0
 11
310406.90200
 21
2651973.66100
 31
0.0
  0
LINE
  8
CADASTRAL_BOUND
  6
CONTINUOUS
 62
1
 10
310406.90200
 20
2651973.66100
 30
0.0
 11
310407.49500
 21
2651974.30800
 31
0.0
  0
LINE
  8
CADASTRAL_BOUND
  6
CONTINUOUS
 62
1
 10
310454.86500
 20
2651959.53200
 30
0.0
 11
310418.58900
 21
2651986.40800
 31
0.0
  0
LINE
  8
CADASTRAL_BOUND
  6
CONTINUOUS
 62
1
 10
310407.49500
 20
2651974.30800
 30
0.0
 11
310418.58900
 21
2651986.40800
 31
0.0
  0
LINE
  8
CADASTRAL_BOUND
  6
CONTINUOUS
 62
1
 10
310386.92400
 20
2651827.23000
 30
0.0
 11
310373.89500
 21
2651839.06400
 31
0.0
  0
LINE
  8
CADASTRAL_BOUND
  6
CONTINUOUS
 62
1
 10
310373.89500
 20
2651839.06400
 30
0.0
 11
310375.63500
 21
2651840.79500
 31
0.0
  0
LINE
  8
CADASTRAL_BOUND
  6
CONTINUOUS
 62
1
 10
310375.63500
 20
2651840.79500
 30
0.0
 11
310382.38000
 21
2651847.50200
 31
0.0
  0
LINE
  8
CADASTRAL_BOUND
  6
CONTINUOUS
 62
1
 10
310382.38000
 20
2651847.50200
 30
0.0
 11
310391.51000
 21
2651857.05200
 31
0.0
  0
LINE
  8
CADASTRAL_BOUND
  6
CONTINUOUS
 62
1
 10
310382.38000
 20
2651847.50200
 30
0.0
 11
310399.62800
 21
2651839.22600
 31
0.0
  0
LINE
  8
CADASTRAL_BOUND
  6
CONTINUOUS
 62
1
 10
310401.80600
 20
2651826.25100
 30
0.0
 11
310375.63500
 21
2651840.79500
 31
0.0
  0
LINE
  8
CADASTRAL_BOUND
  6
CONTINUOUS
 62
1
 10
310401.80600
 20
2651826.25100
 30
0.0
 11
310407.82600
 21
2651827.72200
 31
0.0
  0
LINE
  8
CADASTRAL_BOUND
  6
CONTINUOUS
 62
1
 10
310420.90700
 20
2651820.40800
 30
0.0
 11
310407.82600
 21
2651827.72200
 31
0.0
  0
LINE
  8
CADASTRAL_BOUND
  6
CONTINUOUS
 62
1
 10
310391.51000
 20
2651857.05200
 30
0.0
 11
310400.23900
 21
2651866.14300
 31
0.0
  0
LINE
  8
CADASTRAL_BOUND
  6
CONTINUOUS
 62
1
 10
310391.51000
 20
2651857.05200
 30
0.0
 11
310393.25700
 21
2651855.95900
 31
0.0
  0
LINE
  8
CADASTRAL_BOUND
  6
CONTINUOUS
 62
1
 10
310400.23900
 20
2651866.14300
 30
0.0
 11
310358.57800
 21
2651903.95800
 31
0.0
  0
LINE
  8
CADASTRAL_BOUND
  6
CONTINUOUS
 62
1
 10
310400.23900
 20
2651866.14300
 30
0.0
 11
310393.25700
 21
2651855.95900
 31
0.0
  0
LINE
  8
CADASTRAL_BOUND
  6
CONTINUOUS
 62
1
 10
310358.57800
 20
2651903.95800
 30
0.0
 11
310354.38900
 21
2651907.76000
 31
0.0
  0
LINE
  8
CADASTRAL_BOUND
  6
CONTINUOUS
 62
1
 10
310350.07300
 20
2651911.67800
 30
0.0
 11
310357.23500
 21
2651919.48900
 31
0.0
  0
LINE
  8
CADASTRAL_BOUND
  6
CONTINUOUS
 62
1
 10
310354.38900
 20
2651907.76000
 30
0.0
 11
310350.07300
 21
2651911.67800
 31
0.0
  0
LINE
  8
CADASTRAL_BOUND
  6
CONTINUOUS
 62
1
 10
310402.13400
 20
2651919.17200
 30
0.0
 11
310375.33500
 21
2651939.23100
 31
0.0
  0
LINE
  8
CADASTRAL_BOUND
  6
CONTINUOUS
 62
1
 10
310367.29600
 20
2651930.46300
 30
0.0
 11
310375.33500
 21
2651939.23100
 31
0.0
  0
LINE
  8
CADASTRAL_BOUND
  6
CONTINUOUS
 62
1
 10
310357.23500
 20
2651919.48900
 30
0.0
 11
310357.95300
 21
2651920.27200
 31
0.0
  0
LINE
  8
CADASTRAL_BOUND
  6
CONTINUOUS
 62
1
 10
310357.23500
 20
2651919.48900
 30
0.0
 11
310360.11800
 21
2651917.48300
 31
0.0
  0
LINE
  8
CADASTRAL_BOUND
  6
CONTINUOUS
 62
1
 10
310354.38900
 20
2651907.76000
 30
0.0
 11
310359.99000
 21
2651904.43100
 31
0.0
  0
LINE
  8
CADASTRAL_BOUND
  6
CONTINUOUS
 62
1
 10
310421.23200
 20
2651820.19500
 30
0.0
 11
310420.90700
 21
2651820.40800
 31
0.0
  0
LINE
  8
CADASTRAL_BOUND
  6
CONTINUOUS
 62
1
 10
310492.55500
 20
2651943.07600
 30
0.0
 11
310495.40200
 21
2651947.64300
 31
0.0
  0
LINE
  8
CADASTRAL_BOUND
  6
CONTINUOUS
 62
1
 10
310449.89200
 20
2651981.54400
 30
0.0
 11
310495.40200
 21
2651947.64300
 31
0.0
  0
LINE
  8
CADASTRAL_BOUND
  6
CONTINUOUS
 62
1
 10
310492.55500
 20
2651943.07600
 30
0.0
 11
310487.23200
 21
2651934.53000
 31
0.0
  0
LINE
  8
CADASTRAL_BOUND
  6
CONTINUOUS
 62
1
 10
310487.23200
 20
2651934.53000
 30
0.0
 11
310478.53900
 21
2651920.63800
 31
0.0
  0
LINE
  8
CADASTRAL_BOUND
  6
CONTINUOUS
 62
1
 10
310487.23200
 20
2651934.53000
 30
0.0
 11
310470.81800
 21
2651946.83900
 31
0.0
  0
LINE
  8
CADASTRAL_BOUND
  6
CONTINUOUS
 62
1
 10
310489.14500
 20
2651910.99700
 30
0.0
 11
310478.53900
 21
2651920.63800
 31
0.0
  0
LINE
  8
CADASTRAL_BOUND
  6
CONTINUOUS
 62
1
 10
310478.53900
 20
2651920.63800
 30
0.0
 11
310478.26800
 21
2651920.84300
 31
0.0
  0
LINE
  8
CADASTRAL_BOUND
  6
CONTINUOUS
 62
1
 10
310504.77800
 20
2651898.26800
 30
0.0
 11
310489.14500
 21
2651910.99700
 31
0.0
  0
LINE
  8
CADASTRAL_BOUND
  6
CONTINUOUS
 62
1
 10
310478.87700
 20
2651898.14200
 30
0.0
 11
310489.14500
 21
2651910.99700
 31
0.0
  0
LINE
  8
CADASTRAL_BOUND
  6
CONTINUOUS
 62
1
 10
310533.15700
 20
2651874.98800
 30
0.0
 11
310527.88300
 21
2651864.74300
 31
0.0
  0
LINE
  8
CADASTRAL_BOUND
  6
CONTINUOUS
 62
1
 10
310527.88300
 20
2651864.74300
 30
0.0
 11
310551.15400
 21
2651852.48300
 31
0.0
  0
LINE
  8
CADASTRAL_BOUND
  6
CONTINUOUS
 62
1
 10
310519.52400
 20
2651848.89800
 30
0.0
 11
310527.88300
 21
2651864.74300
 31
0.0
  0
LINE
  8
CADASTRAL_BOUND
  6
CONTINUOUS
 62
1
 10
310527.88300
 20
2651864.74300
 30
0.0
 11
310503.48500
 21
2651878.96800
 31
0.0
  0
LINE
  8
CADASTRAL_BOUND
  6
CONTINUOUS
 62
1
 10
310519.60800
 20
2651885.28000
 30
0.0
 11
310533.15700
 21
2651874.98800
 31
0.0
  0
LINE
  8
CADASTRAL_BOUND
  6
CONTINUOUS
 62
1
 10
310533.15700
 20
2651874.98800
 30
0.0
 11
310539.28700
 21
2651874.22100
 31
0.0
  0
LINE
  8
CADASTRAL_BOUND
  6
CONTINUOUS
 62
1
 10
310519.60800
 20
2651885.28000
 30
0.0
 11
310504.77800
 21
2651898.26800
 31
0.0
  0
LINE
  8
CADASTRAL_BOUND
  6
CONTINUOUS
 62
1
 10
310557.34200
 20
2651866.90500
 30
0.0
 11
310539.28700
 21
2651874.22100
 31
0.0
  0
LINE
  8
CADASTRAL_BOUND
  6
CONTINUOUS
 62
1
 10
310562.08700
 20
2651845.00300
 30
0.0
 11
310551.15400
 21
2651852.48300
 31
0.0
  0
LINE
  8
CADASTRAL_BOUND
  6
CONTINUOUS
 62
1
 10
310562.08700
 20
2651845.00300
 30
0.0
 11
310554.87900
 21
2651835.80100
 31
0.0
  0
LINE
  8
CADASTRAL_BOUND
  6
CONTINUOUS
 62
1
 10
310554.87900
 20
2651835.80100
 30
0.0
 11
310576.98400
 21
2651822.02500
 31
0.0
  0
LINE
  8
CADASTRAL_BOUND
  6
CONTINUOUS
 62
1
 10
310554.87900
 20
2651835.80100
 30
0.0
 11
310553.16000
 21
2651834.04000
 31
0.0
  0
LINE
  8
CADASTRAL_BOUND
  6
CONTINUOUS
 62
1
 10
310576.98400
 20
2651822.02500
 30
0.0
 11
310582.63600
 21
2651818.50300
 31
0.0
  0
LINE
  8
CADASTRAL_BOUND
  6
CONTINUOUS
 62
1
 10
310553.16000
 20
2651834.04000
 30
0.0
 11
310548.80100
 21
2651830.20500
 31
0.0
  0
LINE
  8
CADASTRAL_BOUND
  6
CONTINUOUS
 62
1
 10
310548.80100
 20
2651830.20500
 30
0.0
 11
310548.73200
 21
2651830.13200
 31
0.0
  0
LINE
  8
CADASTRAL_BOUND
  6
CONTINUOUS
 62
1
 10
310548.73200
 20
2651830.13200
 30
0.0
 11
310537.95800
 21
2651818.68500
 31
0.0
  0
LINE
  8
CADASTRAL_BOUND
  6
CONTINUOUS
 62
1
 10
310537.95800
 20
2651818.68500
 30
0.0
 11
310534.92200
 21
2651818.68100
 31
0.0
  0
LINE
  8
CADASTRAL_BOUND
  6
CONTINUOUS
 62
1
 10
310559.43500
 20
2651802.13800
 30
0.0
 11
310546.96700
 21
2651793.35500
 31
0.0
  0
LINE
  8
CADASTRAL_BOUND
  6
CONTINUOUS
 62
1
 10
310524.11100
 20
2651809.91700
 30
0.0
 11
310525.70600
 21
2651808.76400
 31
0.0
  0
LINE
  8
CADASTRAL_BOUND
  6
CONTINUOUS
 62
1
 10
310534.92200
 20
2651818.68100
 30
0.0
 11
310525.70600
 21
2651808.76400
 31
0.0
  0
LINE
  8
CADASTRAL_BOUND
  6
CONTINUOUS
 62
1
 10
310504.06900
 20
2651793.65900
 30
0.0
 11
310511.29600
 21
2651800.79900
 31
0.0
  0
LINE
  8
CADASTRAL_BOUND
  6
CONTINUOUS
 62
1
 10
310511.29600
 20
2651800.79900
 30
0.0
 11
310512.18800
 21
2651802.92800
 31
0.0
  0
LINE
  8
CADASTRAL_BOUND
  6
CONTINUOUS
 62
1
 10
310504.06900
 20
2651793.65900
 30
0.0
 11
310501.45200
 21
2651790.70900
 31
0.0
  0
LINE
  8
CADASTRAL_BOUND
  6
CONTINUOUS
 62
1
 10
310504.06900
 20
2651793.65900
 30
0.0
 11
310494.96000
 21
2651799.86500
 31
0.0
  0
LINE
  8
CADASTRAL_BOUND
  6
CONTINUOUS
 62
1
 10
310501.45200
 20
2651790.70900
 30
0.0
 11
310497.12900
 21
2651784.74700
 31
0.0
  0
LINE
  8
CADASTRAL_BOUND
  6
CONTINUOUS
 62
1
 10
310497.12900
 20
2651784.74700
 30
0.0
 11
310494.86800
 21
2651782.99200
 31
0.0
  0
LINE
  8
CADASTRAL_BOUND
  6
CONTINUOUS
 62
1
 10
310486.47500
 20
2651788.27500
 30
0.0
 11
310497.12900
 21
2651784.74700
 31
0.0
  0
LINE
  8
CADASTRAL_BOUND
  6
CONTINUOUS
 62
1
 10
310494.86800
 20
2651782.99200
 30
0.0
 11
310492.70600
 21
2651780.70400
 31
0.0
  0
LINE
  8
CADASTRAL_BOUND
  6
CONTINUOUS
 62
1
 10
310491.73000
 20
2651779.38400
 30
0.0
 11
310492.70600
 21
2651780.70400
 31
0.0
  0
LINE
  8
CADASTRAL_BOUND
  6
CONTINUOUS
 62
1
 10
310496.11800
 20
2651814.93800
 30
0.0
 11
310512.18800
 21
2651802.92800
 31
0.0
  0
LINE
  8
CADASTRAL_BOUND
  6
CONTINUOUS
 62
1
 10
310463.45100
 20
2651805.52400
 30
0.0
 11
310486.47500
 21
2651788.27500
 31
0.0
  0
LINE
  8
CADASTRAL_BOUND
  6
CONTINUOUS
 62
1
 10
310463.45100
 20
2651805.52400
 30
0.0
 11
310462.29100
 21
2651806.35000
 31
0.0
  0
LINE
  8
CADASTRAL_BOUND
  6
CONTINUOUS
 62
1
 10
310461.94700
 20
2651806.55300
 30
0.0
 11
310462.29100
 21
2651806.35000
 31
0.0
  0
LINE
  8
CADASTRAL_BOUND
  6
CONTINUOUS
 62
1
 10
310461.94700
 20
2651806.55300
 30
0.0
 11
310460.63200
 21
2651807.32900
 31
0.0
  0
LINE
  8
CADASTRAL_BOUND
  6
CONTINUOUS
 62
1
 10
310460.63200
 20
2651807.32900
 30
0.0
 11
310467.15500
 21
2651817.67400
 31
0.0
  0
LINE
  8
CADASTRAL_BOUND
  6
CONTINUOUS
 62
1
 10
310460.63200
 20
2651807.32900
 30
0.0
 11
310456.88600
 21
2651809.54000
 31
0.0
  0
LINE
  8
CADASTRAL_BOUND
  6
CONTINUOUS
 62
1
 10
310467.15500
 20
2651817.67400
 30
0.0
 11
310467.84400
 21
2651817.23200
 31
0.0
  0
LINE
  8
CADASTRAL_BOUND
  6
CONTINUOUS
 62
1
 10
310432.90000
 20
2651839.61500
 30
0.0
 11
310467.15500
 21
2651817.67400
 31
0.0
  0
LINE
  8
CADASTRAL_BOUND
  6
CONTINUOUS
 62
1
 10
310467.84400
 20
2651817.23200
 30
0.0
 11
310469.70400
 21
2651815.92700
 31
0.0
  0
LINE
  8
CADASTRAL_BOUND
  6
CONTINUOUS
 62
1
 10
310469.70400
 20
2651815.92700
 30
0.0
 11
310481.01300
 21
2651809.57400
 31
0.0
  0
LINE
  8
CADASTRAL_BOUND
  6
CONTINUOUS
 62
1
 10
310481.01300
 20
2651809.57400
 30
0.0
 11
310494.96000
 21
2651799.86500
 31
0.0
  0
LINE
  8
CADASTRAL_BOUND
  6
CONTINUOUS
 62
1
 10
310496.11800
 20
2651814.93800
 30
0.0
 11
310486.73400
 21
2651820.13100
 31
0.0
  0
LINE
  8
CADASTRAL_BOUND
  6
CONTINUOUS
 62
1
 10
310486.73400
 20
2651820.13100
 30
0.0
 11
310481.29400
 21
2651823.40300
 31
0.0
  0
LINE
  8
CADASTRAL_BOUND
  6
CONTINUOUS
 62
1
 10
310481.29400
 20
2651823.40300
 30
0.0
 11
310469.92000
 21
2651830.24700
 31
0.0
  0
LINE
  8
CADASTRAL_BOUND
  6
CONTINUOUS
 62
1
 10
310457.99800
 20
2651837.89500
 30
0.0
 11
310469.92000
 21
2651830.24700
 31
0.0
  0
LINE
  8
CADASTRAL_BOUND
  6
CONTINUOUS
 62
1
 10
310457.99800
 20
2651837.89500
 30
0.0
 11
310440.75700
 21
2651847.95700
 31
0.0
  0
LINE
  8
CADASTRAL_BOUND
  6
CONTINUOUS
 62
1
 10
310440.75700
 20
2651847.95700
 30
0.0
 11
310442.61600
 21
2651850.81500
 31
0.0
  0
LINE
  8
CADASTRAL_BOUND
  6
CONTINUOUS
 62
1
 10
310440.75700
 20
2651847.95700
 30
0.0
 11
310432.90000
 21
2651839.61500
 31
0.0
  0
LINE
  8
CADASTRAL_BOUND
  6
CONTINUOUS
 62
1
 10
310442.61600
 20
2651850.81500
 30
0.0
 11
310447.59000
 21
2651855.23800
 31
0.0
  0
LINE
  8
CADASTRAL_BOUND
  6
CONTINUOUS
 62
1
 10
310447.59000
 20
2651855.23800
 30
0.0
 11
310460.79800
 21
2651848.73600
 31
0.0
  0
LINE
  8
CADASTRAL_BOUND
  6
CONTINUOUS
 62
1
 10
310447.59000
 20
2651855.23800
 30
0.0
 11
310453.26100
 21
2651863.89700
 31
0.0
  0
LINE
  8
CADASTRAL_BOUND
  6
CONTINUOUS
 62
1
 10
310460.79800
 20
2651848.73600
 30
0.0
 11
310465.13300
 21
2651846.20800
 31
0.0
  0
LINE
  8
CADASTRAL_BOUND
  6
CONTINUOUS
 62
1
 10
310490.43500
 20
2651830.39900
 30
0.0
 11
310465.13300
 21
2651846.20800
 31
0.0
  0
LINE
  8
CADASTRAL_BOUND
  6
CONTINUOUS
 62
1
 10
310490.43500
 20
2651830.39900
 30
0.0
 11
310515.26000
 21
2651816.31400
 31
0.0
  0
LINE
  8
CADASTRAL_BOUND
  6
CONTINUOUS
 62
1
 10
310515.26000
 20
2651816.31400
 30
0.0
 11
310524.11100
 21
2651809.91700
 31
0.0
  0
LINE
  8
CADASTRAL_BOUND
  6
CONTINUOUS
 62
1
 10
310534.92200
 20
2651818.68100
 30
0.0
 11
310510.29800
 21
2651833.10400
 31
0.0
  0
LINE
  8
CADASTRAL_BOUND
  6
CONTINUOUS
 62
1
 10
310482.20600
 20
2651849.65100
 30
0.0
 11
310510.29800
 21
2651833.10400
 31
0.0
  0
LINE
  8
CADASTRAL_BOUND
  6
CONTINUOUS
 62
1
 10
310510.29800
 20
2651833.10400
 30
0.0
 11
310515.05100
 21
2651840.28200
 31
0.0
  0
LINE
  8
CADASTRAL_BOUND
  6
CONTINUOUS
 62
1
 10
310482.20600
 20
2651849.65100
 30
0.0
 11
310454.99800
 21
2651866.41200
 31
0.0
  0
LINE
  8
CADASTRAL_BOUND
  6
CONTINUOUS
 62
1
 10
310454.99800
 20
2651866.41200
 30
0.0
 11
310453.26100
 21
2651863.89700
 31
0.0
  0
LINE
  8
CADASTRAL_BOUND
  6
CONTINUOUS
 62
1
 10
310454.99800
 20
2651866.41200
 30
0.0
 11
310459.69400
 21
2651873.19500
 31
0.0
  0
LINE
  8
CADASTRAL_BOUND
  6
CONTINUOUS
 62
1
 10
310426.74700
 20
2651878.27700
 30
0.0
 11
310453.26100
 21
2651863.89700
 31
0.0
  0
LINE
  8
CADASTRAL_BOUND
  6
CONTINUOUS
 62
1
 10
310465.52100
 20
2651880.76400
 30
0.0
 11
310459.69400
 21
2651873.19500
 31
0.0
  0
LINE
  8
CADASTRAL_BOUND
  6
CONTINUOUS
 62
1
 10
310435.77500
 20
2651892.32600
 30
0.0
 11
310459.69400
 21
2651873.19500
 31
0.0
  0
LINE
  8
CADASTRAL_BOUND
  6
CONTINUOUS
 62
1
 10
310465.52100
 20
2651880.76400
 30
0.0
 11
310519.52400
 21
2651848.89800
 31
0.0
  0
LINE
  8
CADASTRAL_BOUND
  6
CONTINUOUS
 62
1
 10
310465.52100
 20
2651880.76400
 30
0.0
 11
310468.99400
 21
2651885.09100
 31
0.0
  0
LINE
  8
CADASTRAL_BOUND
  6
CONTINUOUS
 62
1
 10
310515.05100
 20
2651840.28200
 30
0.0
 11
310519.52400
 21
2651848.89800
 31
0.0
  0
LINE
  8
CADASTRAL_BOUND
  6
CONTINUOUS
 62
1
 10
310478.76800
 20
2651898.00100
 30
0.0
 11
310503.48500
 21
2651878.96800
 31
0.0
  0
LINE
  8
CADASTRAL_BOUND
  6
CONTINUOUS
 62
1
 10
310478.76800
 20
2651898.00100
 30
0.0
 11
310474.62300
 21
2651892.33700
 31
0.0
  0
LINE
  8
CADASTRAL_BOUND
  6
CONTINUOUS
 62
1
 10
310478.87700
 20
2651898.14200
 30
0.0
 11
310478.76800
 21
2651898.00100
 31
0.0
  0
LINE
  8
CADASTRAL_BOUND
  6
CONTINUOUS
 62
1
 10
310474.62300
 20
2651892.33700
 30
0.0
 11
310468.99400
 21
2651885.09100
 31
0.0
  0
LINE
  8
CADASTRAL_BOUND
  6
CONTINUOUS
 62
1
 10
310468.99400
 20
2651885.09100
 30
0.0
 11
310438.74500
 21
2651908.96600
 31
0.0
  0
LINE
  8
CADASTRAL_BOUND
  6
CONTINUOUS
 62
1
 10
310467.58400
 20
2651907.04600
 30
0.0
 11
310478.87700
 21
2651898.14200
 31
0.0
  0
LINE
  8
CADASTRAL_BOUND
  6
CONTINUOUS
 62
1
 10
310473.59000
 20
2651914.83700
 30
0.0
 11
310467.58400
 21
2651907.04600
 31
0.0
  0
LINE
  8
CADASTRAL_BOUND
  6
CONTINUOUS
 62
1
 10
310467.58400
 20
2651907.04600
 30
0.0
 11
310456.37200
 21
2651915.88600
 31
0.0
  0
LINE
  8
CADASTRAL_BOUND
  6
CONTINUOUS
 62
1
 10
310473.59000
 20
2651914.83700
 30
0.0
 11
310478.26800
 21
2651920.84300
 31
0.0
  0
LINE
  8
CADASTRAL_BOUND
  6
CONTINUOUS
 62
1
 10
310466.91800
 20
2651929.42700
 30
0.0
 11
310456.37200
 21
2651915.88600
 31
0.0
  0
LINE
  8
CADASTRAL_BOUND
  6
CONTINUOUS
 62
1
 10
310455.36500
 20
2651938.16500
 30
0.0
 11
310466.91800
 21
2651929.42700
 31
0.0
  0
LINE
  8
CADASTRAL_BOUND
  6
CONTINUOUS
 62
1
 10
310466.91800
 20
2651929.42700
 30
0.0
 11
310478.26800
 21
2651920.84300
 31
0.0
  0
LINE
  8
CADASTRAL_BOUND
  6
CONTINUOUS
 62
1
 10
310456.37200
 20
2651915.88600
 30
0.0
 11
310444.99800
 21
2651924.85400
 31
0.0
  0
LINE
  8
CADASTRAL_BOUND
  6
CONTINUOUS
 62
1
 10
310444.99800
 20
2651924.85400
 30
0.0
 11
310455.36500
 21
2651938.16500
 31
0.0
  0
LINE
  8
CADASTRAL_BOUND
  6
CONTINUOUS
 62
1
 10
310444.99800
 20
2651924.85400
 30
0.0
 11
310433.47100
 21
2651933.94200
 31
0.0
  0
LINE
  8
CADASTRAL_BOUND
  6
CONTINUOUS
 62
1
 10
310443.65800
 20
2651947.02000
 30
0.0
 11
310455.36500
 21
2651938.16500
 31
0.0
  0
LINE
  8
CADASTRAL_BOUND
  6
CONTINUOUS
 62
1
 10
310433.47100
 20
2651933.94200
 30
0.0
 11
310443.65800
 21
2651947.02000
 31
0.0
  0
LINE
  8
CADASTRAL_BOUND
  6
CONTINUOUS
 62
1
 10
310443.65800
 20
2651947.02000
 30
0.0
 11
310431.62500
 21
2651956.12100
 31
0.0
  0
LINE
  8
CADASTRAL_BOUND
  6
CONTINUOUS
 62
1
 10
310421.72300
 20
2651943.20500
 30
0.0
 11
310433.47100
 21
2651933.94200
 31
0.0
  0
LINE
  8
CADASTRAL_BOUND
  6
CONTINUOUS
 62
1
 10
310431.62500
 20
2651956.12100
 30
0.0
 11
310421.72300
 21
2651943.20500
 31
0.0
  0
LINE
  8
CADASTRAL_BOUND
  6
CONTINUOUS
 62
1
 10
310409.82000
 20
2651952.59000
 30
0.0
 11
310421.72300
 21
2651943.20500
 31
0.0
  0
LINE
  8
CADASTRAL_BOUND
  6
CONTINUOUS
 62
1
 10
310431.62500
 20
2651956.12100
 30
0.0
 11
310427.05400
 21
2651959.56400
 31
0.0
  0
LINE
  8
CADASTRAL_BOUND
  6
CONTINUOUS
 62
1
 10
310419.36400
 20
2651965.39400
 30
0.0
 11
310427.05400
 21
2651959.56400
 31
0.0
  0
LINE
  8
CADASTRAL_BOUND
  6
CONTINUOUS
 62
1
 10
310409.82000
 20
2651952.59000
 30
0.0
 11
310419.36400
 21
2651965.39400
 31
0.0
  0
LINE
  8
CADASTRAL_BOUND
  6
CONTINUOUS
 62
1
 10
310407.49500
 20
2651974.30800
 30
0.0
 11
310419.36400
 21
2651965.39400
 31
0.0
  0
LINE
  8
CADASTRAL_BOUND
  6
CONTINUOUS
 62
1
 10
310409.82000
 20
2651952.59000
 30
0.0
 11
310396.91300
 21
2651962.76600
 31
0.0
  0
LINE
  8
CADASTRAL_BOUND
  6
CONTINUOUS
 62
1
 10
310458.73300
 20
2651956.71100
 30
0.0
 11
310454.86500
 21
2651959.53200
 31
0.0
  0
LINE
  8
CADASTRAL_BOUND
  6
CONTINUOUS
 62
1
 10
310470.81800
 20
2651946.83900
 30
0.0
 11
310458.73300
 21
2651956.71100
 31
0.0
  0
LINE
  8
CADASTRAL_BOUND
  6
CONTINUOUS
 62
1
 10
310449.89200
 20
2651981.54400
 30
0.0
 11
310440.04400
 21
2651989.04700
 31
0.0
  0
LINE
  8
CADASTRAL_BOUND
  6
CONTINUOUS
 62
1
 10
310431.57000
 20
2651896.31500
 30
0.0
 11
310435.77500
 21
2651892.32600
 31
0.0
  0
LINE
  8
CADASTRAL_BOUND
  6
CONTINUOUS
 62
1
 10
310411.10600
 20
2651912.63800
 30
0.0
 11
310431.57000
 21
2651896.31500
 31
0.0
  0
LINE
  8
CADASTRAL_BOUND
  6
CONTINUOUS
 62
1
 10
310411.10600
 20
2651912.63800
 30
0.0
 11
310402.13400
 21
2651919.17200
 31
0.0
  0
LINE
  8
CADASTRAL_BOUND
  6
CONTINUOUS
 62
1
 10
310405.90900
 20
2651904.34900
 30
0.0
 11
310411.10600
 21
2651912.63800
 31
0.0
  0
LINE
  8
CADASTRAL_BOUND
  6
CONTINUOUS
 62
1
 10
310367.29600
 20
2651930.46300
 30
0.0
 11
310374.25900
 21
2651925.75500
 31
0.0
  0
LINE
  8
CADASTRAL_BOUND
  6
CONTINUOUS
 62
1
 10
310357.95300
 20
2651920.27200
 30
0.0
 11
310367.29600
 21
2651930.46300
 31
0.0
  0
LINE
  8
CADASTRAL_BOUND
  6
CONTINUOUS
 62
1
 10
310364.32100
 20
2651916.00800
 30
0.0
 11
310374.25900
 21
2651925.75500
 31
0.0
  0
LINE
  8
CADASTRAL_BOUND
  6
CONTINUOUS
 62
1
 10
310374.25900
 20
2651925.75500
 30
0.0
 11
310405.90900
 21
2651904.34900
 31
0.0
  0
LINE
  8
CADASTRAL_BOUND
  6
CONTINUOUS
 62
1
 10
310360.90800
 20
2651918.26900
 30
0.0
 11
310364.32100
 21
2651916.00800
 31
0.0
  0
LINE
  8
CADASTRAL_BOUND
  6
CONTINUOUS
 62
1
 10
310398.16700
 20
2651894.24600
 30
0.0
 11
310364.32100
 21
2651916.00800
 31
0.0
  0
LINE
  8
CADASTRAL_BOUND
  6
CONTINUOUS
 62
1
 10
310360.90800
 20
2651918.26900
 30
0.0
 11
310357.95300
 21
2651920.27200
 31
0.0
  0
LINE
  8
CADASTRAL_BOUND
  6
CONTINUOUS
 62
1
 10
310360.90800
 20
2651918.26900
 30
0.0
 11
310360.11800
 21
2651917.48300
 31
0.0
  0
LINE
  8
CADASTRAL_BOUND
  6
CONTINUOUS
 62
1
 10
310359.99000
 20
2651904.43100
 30
0.0
 11
310380.30500
 21
2651892.29400
 31
0.0
  0
LINE
  8
CADASTRAL_BOUND
  6
CONTINUOUS
 62
1
 10
310392.56800
 20
2651885.40300
 30
0.0
 11
310380.30500
 21
2651892.29400
 31
0.0
  0
LINE
  8
CADASTRAL_BOUND
  6
CONTINUOUS
 62
1
 10
310398.16700
 20
2651894.24600
 30
0.0
 11
310392.56800
 21
2651885.40300
 31
0.0
  0
LINE
  8
CADASTRAL_BOUND
  6
CONTINUOUS
 62
1
 10
310392.56800
 20
2651885.40300
 30
0.0
 11
310396.18100
 21
2651883.37300
 31
0.0
  0
LINE
  8
CADASTRAL_BOUND
  6
CONTINUOUS
 62
1
 10
310398.16700
 20
2651894.24600
 30
0.0
 11
310405.90900
 21
2651904.34900
 31
0.0
  0
LINE
  8
CADASTRAL_BOUND
  6
CONTINUOUS
 62
1
 10
310398.16700
 20
2651894.24600
 30
0.0
 11
310406.39000
 21
2651889.35900
 31
0.0
  0
LINE
  8
CADASTRAL_BOUND
  6
CONTINUOUS
 62
1
 10
310401.11800
 20
2651881.00900
 30
0.0
 11
310396.18100
 21
2651883.37300
 31
0.0
  0
LINE
  8
CADASTRAL_BOUND
  6
CONTINUOUS
 62
1
 10
310403.77500
 20
2651879.73800
 30
0.0
 11
310401.11800
 21
2651881.00900
 31
0.0
  0
LINE
  8
CADASTRAL_BOUND
  6
CONTINUOUS
 62
1
 10
310401.11800
 20
2651881.00900
 30
0.0
 11
310406.39000
 21
2651889.35900
 31
0.0
  0
LINE
  8
CADASTRAL_BOUND
  6
CONTINUOUS
 62
1
 10
310403.77500
 20
2651879.73800
 30
0.0
 11
310411.46400
 21
2651875.23000
 31
0.0
  0
LINE
  8
CADASTRAL_BOUND
  6
CONTINUOUS
 62
1
 10
310416.55300
 20
2651883.80600
 30
0.0
 11
310411.46400
 21
2651875.23000
 31
0.0
  0
LINE
  8
CADASTRAL_BOUND
  6
CONTINUOUS
 62
1
 10
310411.46400
 20
2651875.23000
 30
0.0
 11
310420.75300
 21
2651869.78500
 31
0.0
  0
LINE
  8
CADASTRAL_BOUND
  6
CONTINUOUS
 62
1
 10
310408.87000
 20
2651887.87100
 30
0.0
 11
310416.55300
 21
2651883.80600
 31
0.0
  0
LINE
  8
CADASTRAL_BOUND
  6
CONTINUOUS
 62
1
 10
310426.74700
 20
2651878.27700
 30
0.0
 11
310416.55300
 21
2651883.80600
 31
0.0
  0
LINE
  8
CADASTRAL_BOUND
  6
CONTINUOUS
 62
1
 10
310406.39000
 20
2651889.35900
 30
0.0
 11
310408.87000
 21
2651887.87100
 31
0.0
  0
LINE
  8
CADASTRAL_BOUND
  6
CONTINUOUS
 62
1
 10
310426.74700
 20
2651878.27700
 30
0.0
 11
310424.41700
 21
2651874.63400
 31
0.0
  0
LINE
  8
CADASTRAL_BOUND
  6
CONTINUOUS
 62
1
 10
310424.41700
 20
2651874.63400
 30
0.0
 11
310420.75300
 21
2651869.78500
 31
0.0
  0
LINE
  8
CADASTRAL_BOUND
  6
CONTINUOUS
 62
1
 10
310405.09600
 20
2651848.53000
 30
0.0
 11
310420.75300
 21
2651869.78500
 31
0.0
  0
LINE
  8
CADASTRAL_BOUND
  6
CONTINUOUS
 62
1
 10
310393.25700
 20
2651855.95900
 30
0.0
 11
310405.09600
 21
2651848.53000
 31
0.0
  0
LINE
  8
CADASTRAL_BOUND
  6
CONTINUOUS
 62
1
 10
310402.79800
 20
2651844.60300
 30
0.0
 11
310405.09600
 21
2651848.53000
 31
0.0
  0
LINE
  8
CADASTRAL_BOUND
  6
CONTINUOUS
 62
1
 10
310402.79800
 20
2651844.60300
 30
0.0
 11
310399.62800
 21
2651839.22600
 31
0.0
  0
LINE
  8
CADASTRAL_BOUND
  6
CONTINUOUS
 62
1
 10
310402.79800
 20
2651844.60300
 30
0.0
 11
310428.25900
 21
2651833.57100
 31
0.0
  0
LINE
  8
CADASTRAL_BOUND
  6
CONTINUOUS
 62
1
 10
310428.25900
 20
2651833.57100
 30
0.0
 11
310432.90000
 21
2651839.61500
 31
0.0
  0
LINE
  8
CADASTRAL_BOUND
  6
CONTINUOUS
 62
1
 10
310428.25900
 20
2651833.57100
 30
0.0
 11
310425.01400
 21
2651828.35100
 31
0.0
  0
LINE
  8
CADASTRAL_BOUND
  6
CONTINUOUS
 62
1
 10
310456.88600
 20
2651809.54000
 30
0.0
 11
310425.01400
 21
2651828.35100
 31
0.0
  0
LINE
  8
CADASTRAL_BOUND
  6
CONTINUOUS
 62
1
 10
310421.23200
 20
2651820.19500
 30
0.0
 11
310425.01400
 21
2651828.35100
 31
0.0
  0
LINE
  8
CENTERLINE
  6
CONTINUOUS
 62
1
 10
310448.81051
 20
2652013.34074
 30
0.0
 11
310358.55349
 21
2651914.86861
 31
0.0
  0
LINE
  8
CENTERLINE
  6
CONTINUOUS
 62
1
 10
310352.88102
 20
2651914.61557
 30
0.0
 11
310501.33794
 21
2651779.85330
 31
0.0
  0
LINE
  8
CENTERLINE
  6
CONTINUOUS
 62
1
 10
310501.29390
 20
2651785.29553
 30
0.0
 11
310587.82088
 21
2651866.43341
 31
0.0
  0
LINE
  8
CENTERLINE
  6
CONTINUOUS
 62
1
 10
310514.34566
 20
2651944.09521
 30
0.0
 11
310431.00791
 21
2651849.09787
 31
0.0
  0
LINE
  8
SIDE_LINE
  6
CONTINUOUS
 10
310361.51526
 20
2651912.18005
 30
0.0
 11
310394.80130
 21
2651881.96454
 31
0.0
  0
LINE
  8
SIDE_LINE
  6
CONTINUOUS
 10
310428.04575
 20
2651851.78678
 30
0.0
 11
310394.80130
 21
2651881.96454
 31
0.0
  0
LINE
  8
SIDE_LINE
  6
CONTINUOUS
 10
310433.97007
 20
2651846.40896
 30
0.0
 11
310466.20147
 21
2651817.15080
 31
0.0
  0
LINE
  8
SIDE_LINE
  6
CONTINUOUS
 10
310585.08358
 20
2651869.35012
 30
0.0
 11
310560.95013
 21
2651846.71976
 31
0.0
  0
LINE
  8
SIDE_LINE
  6
CONTINUOUS
 10
310517.10726
 20
2651941.17769
 30
0.0
 11
310495.16840
 21
2651916.16941
 31
0.0
  0
LINE
  8
SIDE_LINE
  6
CONTINUOUS
 10
310511.58406
 20
2651947.01273
 30
0.0
 11
310489.64343
 21
2651922.00245
 31
0.0
  0
LINE
  8
SIDE_LINE
  6
CONTINUOUS
 10
310451.56699
 20
2652010.42816
 30
0.0
 11
310429.10233
 21
2651985.91925
 31
0.0
  0
LINE
  8
SIDE_LINE
  6
CONTINUOUS
 10
310498.32256
 20
2651787.99277
 30
0.0
 11
310466.20147
 21
2651817.15080
 31
0.0
  0
LINE
  8
FRONT_LINE
  6
CONTINUOUS
 10
310451.56699
 20
2652010.42816
 30
0.0
 11
310511.58406
 21
2651947.01273
 31
0.0
  0
LINE
  8
FRONT_LINE
  6
CONTINUOUS
 10
310517.10726
 20
2651941.17769
 30
0.0
 11
310585.08358
 21
2651869.35012
 31
0.0
  0
LINE
  8
FRONT_LINE
  6
CONTINUOUS
 10
310433.97007
 20
2651846.40896
 30
0.0
 11
310495.16840
 21
2651916.16941
 31
0.0
  0
LINE
  8
FRONT_LINE
  6
CONTINUOUS
 10
310560.95013
 20
2651846.71976
 30
0.0
 11
310498.32256
 21
2651787.99277
 31
0.0
  0
LINE
  8
FRONT_LINE
  6
CONTINUOUS
 10
310489.64343
 20
2651922.00245
 30
0.0
 11
310428.04575
 21
2651851.78678
 31
0.0
  0
LINE
  8
FRONT_LINE
  6
CONTINUOUS
 10
310361.51526
 20
2651912.18005
 30
0.0
 11
310429.10233
 21
2651985.91925
 31
0.0
  0
LINE
  8
ALLOC_LINE
  6
CONTINUOUS
 62
2
 10
310425.71546
 20
2651982.22409
 30
0.0
 11
310456.09192
 21
2651950.15387
 31
0.0
  0
LINE
  8
ALLOC_LINE
  6
CONTINUOUS
 62
2
 10
310459.44516
 20
2651953.88454
 30
0.0
 11
310481.67446
 21
2651978.61591
 31
0.0
  0
LINE
  8
ALLOC_LINE
  6
CONTINUOUS
 62
2
 10
310452.73869
 20
2651946.42320
 30
0.0
 11
310483.02050
 21
2651914.45292
 31
0.0
  0
LINE
  8
ALLOC_LINE
  6
CONTINUOUS
 62
2
 10
310551.09360
 20
2651905.14211
 30
0.0
 11
310528.14421
 21
2651881.35490
 31
0.0
  0
LINE
  8
ALLOC_LINE
  6
CONTINUOUS
 62
2
 10
310485.23400
 20
2651904.84511
 30
0.0
 11
310517.71885
 21
2651870.54894
 31
0.0
  0
LINE
  8
ALLOC_LINE
  6
CONTINUOUS
 62
2
 10
310512.95905
 20
2651801.71767
 30
0.0
 11
310480.09427
 21
2651831.55079
 31
0.0
  0
POLYLINE
  8
BLOCK
  6
CONTINUOUS
 66
1
 10
0.0
 20
0.0
 30
0.0
 70
1
  0
VERTEX
  8
BLOCK
  6
CONTINUOUS
 10
310400.33700
 20
2651866.13500
 30
0.0
  0
VERTEX
  8
BLOCK
  6
CONTINUOUS
 10
310350.17800
 20
2651911.66700
 30
0.0
  0
VERTEX
  8
BLOCK
  6
CONTINUOUS
 10
310446.05429
 20
2652016.25304
 30
0.0
  0
VERTEX
  8
BLOCK
  6
CONTINUOUS
 10
310454.08842
 20
2652007.76394
 30
0.0
  0
VERTEX
  8
BLOCK
  6
CONTINUOUS
 10
310449.08857
 20
2652007.72421
 30
0.0
  0
VERTEX
  8
BLOCK
  6
CONTINUOUS
 10
310446.14756
 20
2652004.51603
 30
0.0
  0
VERTEX
  8
BLOCK
  6
CONTINUOUS
 10
310429.10233
 20
2651985.91925
 30
0.0
  0
VERTEX
  8
BLOCK
  6
CONTINUOUS
 10
310363.91004
 20
2651914.79281
 30
0.0
  0
VERTEX
  8
BLOCK
  6
CONTINUOUS
 10
310364.13930
 20
2651909.79807
 30
0.0
  0
VERTEX
  8
BLOCK
  6
CONTINUOUS
 10
310394.80130
 20
2651881.96454
 30
0.0
  0
VERTEX
  8
BLOCK
  6
CONTINUOUS
 10
310425.47003
 20
2651854.12490
 30
0.0
  0
VERTEX
  8
BLOCK
  6
CONTINUOUS
 10
310430.39736
 20
2651854.46740
 30
0.0
  0
VERTEX
  8
BLOCK
  6
CONTINUOUS
 10
310489.64343
 20
2651922.00245
 30
0.0
  0
VERTEX
  8
BLOCK
  6
CONTINUOUS
 10
310506.28533
 20
2651940.97267
 30
0.0
  0
VERTEX
  8
BLOCK
  6
CONTINUOUS
 10
310509.32387
 20
2651944.43633
 30
0.0
  0
VERTEX
  8
BLOCK
  6
CONTINUOUS
 10
310509.25877
 20
2651949.46931
 30
0.0
  0
VERTEX
  8
BLOCK
  6
CONTINUOUS
 10
310513.97679
 20
2651944.48411
 30
0.0
  0
VERTEX
  8
BLOCK
  6
CONTINUOUS
 10
310519.65863
 20
2651938.48226
 30
0.0
  0
VERTEX
  8
BLOCK
  6
CONTINUOUS
 10
310514.65953
 20
2651938.38750
 30
0.0
  0
VERTEX
  8
BLOCK
  6
CONTINUOUS
 10
310495.16839
 20
2651916.16941
 30
0.0
  0
VERTEX
  8
BLOCK
  6
CONTINUOUS
 10
310436.25400
 20
2651849.01243
 30
0.0
  0
VERTEX
  8
BLOCK
  6
CONTINUOUS
 10
310436.59715
 20
2651844.02422
 30
0.0
  0
VERTEX
  8
BLOCK
  6
CONTINUOUS
 10
310466.20147
 20
2651817.15080
 30
0.0
  0
VERTEX
  8
BLOCK
  6
CONTINUOUS
 10
310495.80398
 20
2651790.27902
 30
0.0
  0
VERTEX
  8
BLOCK
  6
CONTINUOUS
 10
310500.80381
 20
2651790.31949
 30
0.0
  0
VERTEX
  8
BLOCK
  6
CONTINUOUS
 10
310560.95013
 20
2651846.71976
 30
0.0
  0
VERTEX
  8
BLOCK
  6
CONTINUOUS
 10
310582.50964
 20
2651866.93649
 30
0.0
  0
VERTEX
  8
BLOCK
  6
CONTINUOUS
 10
310582.65840
 20
2651871.93427
 30
0.0
  0
VERTEX
  8
BLOCK
  6
CONTINUOUS
 10
310586.26043
 20
2651868.12937
 30
0.0
  0
VERTEX
  8
BLOCK
  6
CONTINUOUS
 10
310590.49500
 20
2651863.58400
 30
0.0
  0
VERTEX
  8
BLOCK
  6
CONTINUOUS
 10
310568.02400
 20
2651842.38600
 30
0.0
  0
VERTEX
  8
BLOCK
  6
CONTINUOUS
 10
310498.41064
 20
2651777.10832
 30
0.0
  0
VERTEX
  8
BLOCK
  6
CONTINUOUS
 10
310489.73816
 20
2651784.98080
 30
0.0
  0
VERTEX
  8
BLOCK
  6
CONTINUOUS
 10
310431.33389
 20
2651837.99747
 30
0.0
  0
VERTEX
  8
BLOCK
  6
CONTINUOUS
 10
310420.13634
 20
2651848.16209
 30
0.0
  0
SEQEND
  8
BLOCK
  6
CONTINUOUS
  0
POLYLINE
  8
BLOCK
  6
CONTINUOUS
 66
1
 10
0.0
 20
0.0
 30
0.0
 70
1
  0
VERTEX
  8
BLOCK
  6
CONTINUOUS
 10
310528.14421
 20
2651881.35489
 30
0.0
  0
VERTEX
  8
BLOCK
  6
CONTINUOUS
 10
310495.16840
 20
2651916.16941
 30
0.0
  0
VERTEX
  8
BLOCK
  6
CONTINUOUS
 10
310514.65953
 20
2651938.38750
 30
0.0
  0
VERTEX
  8
BLOCK
  6
CONTINUOUS
 10
310519.65863
 20
2651938.48226
 30
0.0
  0
VERTEX
  8
BLOCK
  6
CONTINUOUS
 10
310582.65840
 20
2651871.93427
 30
0.0
  0
VERTEX
  8
BLOCK
  6
CONTINUOUS
 10
310582.50964
 20
2651866.93649
 30
0.0
  0
VERTEX
  8
BLOCK
  6
CONTINUOUS
 10
310560.95013
 20
2651846.71975
 30
0.0
  0
SEQEND
  8
BLOCK
  6
CONTINUOUS
  0
POLYLINE
  8
BLOCK
  6
CONTINUOUS
 66
1
 10
0.0
 20
0.0
 30
0.0
 70
1
  0
VERTEX
  8
BLOCK
  6
CONTINUOUS
 10
310560.95013
 20
2651846.71976
 30
0.0
  0
VERTEX
  8
BLOCK
  6
CONTINUOUS
 10
310500.80381
 20
2651790.31949
 30
0.0
  0
VERTEX
  8
BLOCK
  6
CONTINUOUS
 10
310495.80398
 20
2651790.27902
 30
0.0
  0
VERTEX
  8
BLOCK
  6
CONTINUOUS
 10
310466.20147
 20
2651817.15080
 30
0.0
  0
VERTEX
  8
BLOCK
  6
CONTINUOUS
 10
310528.14421
 20
2651881.35489
 30
0.0
  0
SEQEND
  8
BLOCK
  6
CONTINUOUS
  0
POLYLINE
  8
BLOCK
  6
CONTINUOUS
 66
1
 10
0.0
 20
0.0
 30
0.0
 70
1
  0
VERTEX
  8
BLOCK
  6
CONTINUOUS
 10
310528.14421
 20
2651881.35490
 30
0.0
  0
VERTEX
  8
BLOCK
  6
CONTINUOUS
 10
310466.20147
 20
2651817.15080
 30
0.0
  0
VERTEX
  8
BLOCK
  6
CONTINUOUS
 10
310436.59715
 20
2651844.02422
 30
0.0
  0
VERTEX
  8
BLOCK
  6
CONTINUOUS
 10
310436.25400
 20
2651849.01243
 30
0.0
  0
VERTEX
  8
BLOCK
  6
CONTINUOUS
 10
310495.16840
 20
2651916.16941
 30
0.0
  0
SEQEND
  8
BLOCK
  6
CONTINUOUS
  0
POLYLINE
  8
BLOCK
  6
CONTINUOUS
 66
1
 10
0.0
 20
0.0
 30
0.0
 70
1
  0
VERTEX
  8
BLOCK
  6
CONTINUOUS
 10
310363.91004
 20
2651914.79281
 30
0.0
  0
VERTEX
  8
BLOCK
  6
CONTINUOUS
 10
310429.10233
 20
2651985.91925
 30
0.0
  0
VERTEX
  8
BLOCK
  6
CONTINUOUS
 10
310459.44516
 20
2651953.88454
 30
0.0
  0
VERTEX
  8
BLOCK
  6
CONTINUOUS
 10
310394.80130
 20
2651881.96454
 30
0.0
  0
VERTEX
  8
BLOCK
  6
CONTINUOUS
 10
310364.13930
 20
2651909.79807
 30
0.0
  0
SEQEND
  8
BLOCK
  6
CONTINUOUS
  0
POLYLINE
  8
BLOCK
  6
CONTINUOUS
 66
1
 10
0.0
 20
0.0
 30
0.0
 70
1
  0
VERTEX
  8
BLOCK
  6
CONTINUOUS
 10
310489.64343
 20
2651922.00245
 30
0.0
  0
VERTEX
  8
BLOCK
  6
CONTINUOUS
 10
310430.39736
 20
2651854.46740
 30
0.0
  0
VERTEX
  8
BLOCK
  6
CONTINUOUS
 10
310425.47003
 20
2651854.12490
 30
0.0
  0
VERTEX
  8
BLOCK
  6
CONTINUOUS
 10
310394.80130
 20
2651881.96454
 30
0.0
  0
VERTEX
  8
BLOCK
  6
CONTINUOUS
 10
310459.44516
 20
2651953.88454
 30
0.0
  0
SEQEND
  8
BLOCK
  6
CONTINUOUS
  0
POLYLINE
  8
BLOCK
  6
CONTINUOUS
 66
1
 10
0.0
 20
0.0
 30
0.0
 70
1
  0
VERTEX
  8
BLOCK
  6
CONTINUOUS
 10
310489.64343
 20
2651922.00245
 30
0.0
  0
VERTEX
  8
BLOCK
  6
CONTINUOUS
 10
310459.44516
 20
2651953.88454
 30
0.0
  0
VERTEX
  8
BLOCK
  6
CONTINUOUS
 10
310429.10233
 20
2651985.91925
 30
0.0
  0
VERTEX
  8
BLOCK
  6
CONTINUOUS
 10
310446.14756
 20
2652004.51603
 30
0.0
  0
VERTEX
  8
BLOCK
  6
CONTINUOUS
 10
310449.08857
 20
2652007.72421
 30
0.0
  0
VERTEX
  8
BLOCK
  6
CONTINUOUS
 10
310454.08842
 20
2652007.76394
 30
0.0
  0
VERTEX
  8
BLOCK
  6
CONTINUOUS
 10
310509.25877
 20
2651949.46931
 30
0.0
  0
VERTEX
  8
BLOCK
  6
CONTINUOUS
 10
310509.32387
 20
2651944.43633
 30
0.0
  0
VERTEX
  8
BLOCK
  6
CONTINUOUS
 10
310506.28533
 20
2651940.97267
 30
0.0
  0
SEQEND
  8
BLOCK
  6
CONTINUOUS
  0
POLYLINE
  8
BLOCK
  6
CONTINUOUS
 66
1
 10
0.0
 20
0.0
 30
0.0
 70
1
  0
VERTEX
  8
BLOCK
  6
CONTINUOUS
 10
310431.33389
 20
2651837.99747
 30
0.0
  0
VERTEX
  8
BLOCK
  6
CONTINUOUS
 10
310489.73816
 20
2651784.98080
 30
0.0
  0
VERTEX
  8
BLOCK
  6
CONTINUOUS
 10
310498.41064
 20
2651777.10832
 30
0.0
  0
VERTEX
  8
BLOCK
  6
CONTINUOUS
 10
310568.02400
 20
2651842.38600
 30
0.0
  0
VERTEX
  8
BLOCK
  6
CONTINUOUS
 10
310585.76900
 20
2651820.58900
 30
0.0
  0
VERTEX
  8
BLOCK
  6
CONTINUOUS
 10
310477.93206
 20
2651744.64693
 30
0.0
  0
VERTEX
  8
BLOCK
  6
CONTINUOUS
 10
310473.47864
 20
2651748.69209
 30
0.0
  0
VERTEX
  8
BLOCK
  6
CONTINUOUS
 10
310462.29102
 20
2651758.85412
 30
0.0
  0
VERTEX
  8
BLOCK
  6
CONTINUOUS
 10
310406.37778
 20
2651809.64166
 30
0.0
  0
VERTEX
  8
BLOCK
  6
CONTINUOUS
 10
310395.22039
 20
2651819.77623
 30
0.0
  0
VERTEX
  8
BLOCK
  6
CONTINUOUS
 10
310373.99298
 20
2651839.05767
 30
0.0
  0
VERTEX
  8
BLOCK
  6
CONTINUOUS
 10
310400.33700
 20
2651866.13500
 30
0.0
  0
VERTEX
  8
BLOCK
  6
CONTINUOUS
 10
310420.13634
 20
2651848.16209
 30
0.0
  0
SEQEND
  8
BLOCK
  6
CONTINUOUS
  0
POLYLINE
  8
0
  6
LS_Dash
 62
1
 66
1
 10
0.0
 20
0.0
 30
0.0
  0
VERTEX
  8
0
  6
LS_Dash
 62
1
 10
310364.13930
 20
2651909.79807
 30
0.0
  0
VERTEX
  8
0
  6
LS_Dash
 62
1
 10
310361.51526
 20
2651912.18005
 30
0.0
  0
VERTEX
  8
0
  6
LS_Dash
 62
1
 10
310355.58404
 20
2651917.56414
 30
0.0
  0
SEQEND
  8
0
  6
LS_Dash
 62
1
  0
POLYLINE
  8
0
  6
LS_Dash
 62
1
 66
1
 10
0.0
 20
0.0
 30
0.0
  0
VERTEX
  8
0
  6
LS_Dash
 62
1
 10
310425.47003
 20
2651854.12490
 30
0.0
  0
VERTEX
  8
0
  6
LS_Dash
 62
1
 10
310428.04575
 20
2651851.78678
 30
0.0
  0
VERTEX
  8
0
  6
LS_Dash
 62
1
 10
310433.97007
 20
2651846.40896
 30
0.0
  0
VERTEX
  8
0
  6
LS_Dash
 62
1
 10
310436.59715
 20
2651844.02422
 30
0.0
  0
SEQEND
  8
0
  6
LS_Dash
 62
1
  0
POLYLINE
  8
0
  6
LS_Dash
 62
1
 66
1
 10
0.0
 20
0.0
 30
0.0
  0
VERTEX
  8
0
  6
LS_Dash
 62
1
 10
310495.80398
 20
2651790.27902
 30
0.0
  0
VERTEX
  8
0
  6
LS_Dash
 62
1
 10
310498.32256
 20
2651787.99277
 30
0.0
  0
VERTEX
  8
0
  6
LS_Dash
 62
1
 10
310504.26524
 20
2651782.59828
 30
0.0
  0
SEQEND
  8
0
  6
LS_Dash
 62
1
  0
POLYLINE
  8
BLOCK
  6
CONTINUOUS
 66
1
 10
0.0
 20
0.0
 30
0.0
 70
1
  0
VERTEX
  8
BLOCK
  6
CONTINUOUS
 10
310436.59715
 20
2651844.02422
 30
0.0
  0
VERTEX
  8
BLOCK
  6
CONTINUOUS
 10
310466.20147
 20
2651817.15080
 30
0.0
  0
VERTEX
  8
BLOCK
  6
CONTINUOUS
 10
310495.80398
 20
2651790.27902
 30
0.0
  0
VERTEX
  8
BLOCK
  6
CONTINUOUS
 10
310498.32256
 20
2651787.99277
 30
0.0
  0
VERTEX
  8
BLOCK
  6
CONTINUOUS
 10
310504.26524
 20
2651782.59828
 30
0.0
  0
VERTEX
  8
BLOCK
  6
CONTINUOUS
 10
310498.41064
 20
2651777.10832
 30
0.0
  0
VERTEX
  8
BLOCK
  6
CONTINUOUS
 10
310489.73816
 20
2651784.98080
 30
0.0
  0
VERTEX
  8
BLOCK
  6
CONTINUOUS
 10
310431.33389
 20
2651837.99747
 30
0.0
  0
VERTEX
  8
BLOCK
  6
CONTINUOUS
 10
310420.13634
 20
2651848.16209
 30
0.0
  0
VERTEX
  8
BLOCK
  6
CONTINUOUS
 10
310400.33700
 20
2651866.13500
 30
0.0
  0
VERTEX
  8
BLOCK
  6
CONTINUOUS
 10
310350.17800
 20
2651911.66700
 30
0.0
  0
VERTEX
  8
BLOCK
  6
CONTINUOUS
 10
310355.58404
 20
2651917.56414
 30
0.0
  0
VERTEX
  8
BLOCK
  6
CONTINUOUS
 10
310361.51526
 20
2651912.18005
 30
0.0
  0
VERTEX
  8
BLOCK
  6
CONTINUOUS
 10
310364.13930
 20
2651909.79807
 30
0.0
  0
VERTEX
  8
BLOCK
  6
CONTINUOUS
 10
310394.80130
 20
2651881.96454
 30
0.0
  0
VERTEX
  8
BLOCK
  6
CONTINUOUS
 10
310425.47003
 20
2651854.12490
 30
0.0
  0
VERTEX
  8
BLOCK
  6
CONTINUOUS
 10
310428.04575
 20
2651851.78678
 30
0.0
  0
VERTEX
  8
BLOCK
  6
CONTINUOUS
 10
310433.97007
 20
2651846.40896
 30
0.0
  0
SEQEND
  8
BLOCK
  6
CONTINUOUS
  0
POLYLINE
  8
BLOCK
  6
CONTINUOUS
 66
1
 10
0.0
 20
0.0
 30
0.0
 70
1
  0
VERTEX
  8
BLOCK
  6
CONTINUOUS
 10
310568.02400
 20
2651842.38600
 30
0.0
  0
VERTEX
  8
BLOCK
  6
CONTINUOUS
 10
310504.26524
 20
2651782.59828
 30
0.0
  0
VERTEX
  8
BLOCK
  6
CONTINUOUS
 10
310498.32256
 20
2651787.99277
 30
0.0
  0
VERTEX
  8
BLOCK
  6
CONTINUOUS
 10
310495.80398
 20
2651790.27902
 30
0.0
  0
VERTEX
  8
BLOCK
  6
CONTINUOUS
 10
310500.80381
 20
2651790.31949
 30
0.0
  0
VERTEX
  8
BLOCK
  6
CONTINUOUS
 10
310560.95013
 20
2651846.71976
 30
0.0
  0
VERTEX
  8
BLOCK
  6
CONTINUOUS
 10
310582.50964
 20
2651866.93649
 30
0.0
  0
VERTEX
  8
BLOCK
  6
CONTINUOUS
 10
310582.65840
 20
2651871.93427
 30
0.0
  0
VERTEX
  8
BLOCK
  6
CONTINUOUS
 10
310586.26043
 20
2651868.12937
 30
0.0
  0
VERTEX
  8
BLOCK
  6
CONTINUOUS
 10
310590.49500
 20
2651863.58400
 30
0.0
  0
SEQEND
  8
BLOCK
  6
CONTINUOUS
  0
POLYLINE
  8
BLOCK
  6
CONTINUOUS
 66
1
 10
0.0
 20
0.0
 30
0.0
 70
1
  0
VERTEX
  8
BLOCK
  6
CONTINUOUS
 10
310495.16840
 20
2651916.16941
 30
0.0
  0
VERTEX
  8
BLOCK
  6
CONTINUOUS
 10
310436.25400
 20
2651849.01243
 30
0.0
  0
VERTEX
  8
BLOCK
  6
CONTINUOUS
 10
310436.59715
 20
2651844.02422
 30
0.0
  0
VERTEX
  8
BLOCK
  6
CONTINUOUS
 10
310433.97007
 20
2651846.40896
 30
0.0
  0
VERTEX
  8
BLOCK
  6
CONTINUOUS
 10
310428.04575
 20
2651851.78678
 30
0.0
  0
VERTEX
  8
BLOCK
  6
CONTINUOUS
 10
310425.47003
 20
2651854.12490
 30
0.0
  0
VERTEX
  8
BLOCK
  6
CONTINUOUS
 10
310430.39736
 20
2651854.46740
 30
0.0
  0
VERTEX
  8
BLOCK
  6
CONTINUOUS
 10
310489.64343
 20
2651922.00245
 30
0.0
  0
VERTEX
  8
BLOCK
  6
CONTINUOUS
 10
310506.28533
 20
2651940.97267
 30
0.0
  0
VERTEX
  8
BLOCK
  6
CONTINUOUS
 10
310509.32387
 20
2651944.43633
 30
0.0
  0
VERTEX
  8
BLOCK
  6
CONTINUOUS
 10
310509.25877
 20
2651949.46931
 30
0.0
  0
VERTEX
  8
BLOCK
  6
CONTINUOUS
 10
310513.97679
 20
2651944.48411
 30
0.0
  0
VERTEX
  8
BLOCK
  6
CONTINUOUS
 10
310519.65863
 20
2651938.48226
 30
0.0
  0
VERTEX
  8
BLOCK
  6
CONTINUOUS
 10
310514.65953
 20
2651938.38750
 30
0.0
  0
SEQEND
  8
BLOCK
  6
CONTINUOUS
  0
POLYLINE
  8
BLOCK
  6
CONTINUOUS
 66
1
 10
0.0
 20
0.0
 30
0.0
 70
1
  0
VERTEX
  8
BLOCK
  6
CONTINUOUS
 10
310429.10233
 20
2651985.91925
 30
0.0
  0
VERTEX
  8
BLOCK
  6
CONTINUOUS
 10
310363.91004
 20
2651914.79281
 30
0.0
  0
VERTEX
  8
BLOCK
  6
CONTINUOUS
 10
310364.13930
 20
2651909.79807
 30
0.0
  0
VERTEX
  8
BLOCK
  6
CONTINUOUS
 10
310361.51526
 20
2651912.18005
 30
0.0
  0
VERTEX
  8
BLOCK
  6
CONTINUOUS
 10
310355.58404
 20
2651917.56414
 30
0.0
  0
VERTEX
  8
BLOCK
  6
CONTINUOUS
 10
310446.05429
 20
2652016.25304
 30
0.0
  0
VERTEX
  8
BLOCK
  6
CONTINUOUS
 10
310454.08842
 20
2652007.76394
 30
0.0
  0
VERTEX
  8
BLOCK
  6
CONTINUOUS
 10
310449.08857
 20
2652007.72421
 30
0.0
  0
VERTEX
  8
BLOCK
  6
CONTINUOUS
 10
310446.14756
 20
2652004.51603
 30
0.0
  0
SEQEND
  8
BLOCK
  6
CONTINUOUS
  0
INSERT
  8
ALLOC_LINE
  2
PS_Cross
 10
310456.09192
 20
2651950.15387
 30
0.0
 41
2.000
 42
2.000
 43
2.000
  0
INSERT
  8
ALLOC_LINE
  2
PS_Cross
 10
310425.71546
 20
2651982.22409
 30
0.0
 41
2.000
 42
2.000
 43
2.000
  0
INSERT
  8
ALLOC_LINE
  2
PS_Cross
 10
310481.67446
 20
2651978.61591
 30
0.0
 41
2.000
 42
2.000
 43
2.000
  0
INSERT
  8
ALLOC_LINE
  2
PS_Cross
 10
310483.02050
 20
2651914.45292
 30
0.0
 41
2.000
 42
2.000
 43
2.000
  0
INSERT
  8
ALLOC_LINE
  2
PS_Cross
 10
310452.73869
 20
2651946.42320
 30
0.0
 41
2.000
 42
2.000
 43
2.000
  0
INSERT
  8
ALLOC_LINE
  2
PS_Cross
 10
310551.09360
 20
2651905.14211
 30
0.0
 41
2.000
 42
2.000
 43
2.000
  0
INSERT
  8
ALLOC_LINE
  2
PS_Cross
 10
310517.71885
 20
2651870.54894
 30
0.0
 41
2.000
 42
2.000
 43
2.000
  0
INSERT
  8
ALLOC_LINE
  2
PS_Cross
 10
310485.23400
 20
2651904.84511
 30
0.0
 41
2.000
 42
2.000
 43
2.000
  0
INSERT
  8
ALLOC_LINE
  2
PS_Cross
 10
310480.09427
 20
2651831.55079
 30
0.0
 41
2.000
 42
2.000
 43
2.000
  0
INSERT
  8
ALLOC_LINE
  2
PS_Cross
 10
310512.95905
 20
2651801.71767
 30
0.0
 41
2.000
 42
2.000
 43
2.000
  0
INSERT
  8
0
  2
PS_Cross
 10
310528.48840
 20
2651880.99152
 30
0.0
 41
2.000
 42
2.000
 43
2.000
  0
INSERT
  8
0
  2
PS_Cross
 10
310466.57186
 20
2651816.81458
 30
0.0
 41
2.000
 42
2.000
 43
2.000
  0
INSERT
  8
0
  2
PS_Cross
 10
310527.80002
 20
2651881.71828
 30
0.0
 41
2.000
 42
2.000
 43
2.000
  0
INSERT
  8
0
  2
PS_Cross
 10
310465.83108
 20
2651817.48702
 30
0.0
 41
2.000
 42
2.000
 43
2.000
  0
INSERT
  8
0
  2
PS_Cross
 10
310394.43108
 20
2651882.30061
 30
0.0
 41
2.000
 42
2.000
 43
2.000
  0
INSERT
  8
0
  2
PS_Cross
 10
310395.17152
 20
2651881.62847
 30
0.0
 41
2.000
 42
2.000
 43
2.000
  0
INSERT
  8
0
  2
PS_Cross
 10
310501.29390
 20
2651785.29553
 30
0.0
 41
2.000
 42
2.000
 43
2.000
  0
INSERT
  8
0
  2
PS_Cross
 10
310587.82088
 20
2651866.43341
 30
0.0
 41
2.000
 42
2.000
 43
2.000
  0
INSERT
  8
0
  2
PS_Cross
 10
310431.00791
 20
2651849.09787
 30
0.0
 41
2.000
 42
2.000
 43
2.000
  0
INSERT
  8
0
  2
PS_Cross
 10
310514.34566
 20
2651944.09521
 30
0.0
 41
2.000
 42
2.000
 43
2.000
  0
INSERT
  8
0
  2
PS_Cross
 10
310352.88102
 20
2651914.61557
 30
0.0
 41
2.000
 42
2.000
 43
2.000
  0
INSERT
  8
0
  2
PS_Cross
 10
310501.33794
 20
2651779.85330
 30
0.0
 41
2.000
 42
2.000
 43
2.000
  0
INSERT
  8
0
  2
PS_Cross
 10
310448.81051
 20
2652013.34074
 30
0.0
 41
2.000
 42
2.000
 43
2.000
  0
INSERT
  8
0
  2
PS_Cross
 10
310358.55349
 20
2651914.86861
 30
0.0
 41
2.000
 42
2.000
 43
2.000
  0
INSERT
  8
0
  2
PS_Cross
 10
310492.94551
 20
2651782.06931
 30
0.0
 41
2.000
 42
2.000
 43
2.000
  0
INSERT
  8
0
  2
PS_Cross
 10
310504.26524
 20
2651782.59828
 30
0.0
 41
2.000
 42
2.000
 43
2.000
  0
INSERT
  8
0
  2
PS_Cross
 10
310355.58404
 20
2651917.56414
 30
0.0
 41
2.000
 42
2.000
 43
2.000
  0
INSERT
  8
0
  2
PS_Cross
 10
310428.04575
 20
2651851.78678
 30
0.0
 41
2.000
 42
2.000
 43
2.000
  0
INSERT
  8
0
  2
PS_Cross
 10
310433.97007
 20
2651846.40896
 30
0.0
 41
2.000
 42
2.000
 43
2.000
  0
INSERT
  8
0
  2
PS_Cross
 10
310498.32256
 20
2651787.99277
 30
0.0
 41
2.000
 42
2.000
 43
2.000
  0
INSERT
  8
0
  2
PS_Cross
 10
310585.08358
 20
2651869.35012
 30
0.0
 41
2.000
 42
2.000
 43
2.000
  0
INSERT
  8
0
  2
PS_Cross
 10
310517.10726
 20
2651941.17769
 30
0.0
 41
2.000
 42
2.000
 43
2.000
  0
INSERT
  8
0
  2
PS_Cross
 10
310511.58406
 20
2651947.01273
 30
0.0
 41
2.000
 42
2.000
 43
2.000
  0
INSERT
  8
0
  2
PS_Cross
 10
310451.56699
 20
2652010.42816
 30
0.0
 41
2.000
 42
2.000
 43
2.000
  0
INSERT
  8
0
  2
PS_Cross
 10
310361.51526
 20
2651912.18005
 30
0.0
 41
0.100
 42
0.100
 43
0.100
  0
ENDSEC
  0
EOF
